<svg width="1900" height="2046" viewBox="0 0 1900 2046" fill="none" xmlns="http://www.w3.org/2000/svg">
<path d="M1900 130.131V0H0V150.191C0 150.191 37.5068 174.88 86.3169 248.432C135.127 321.984 309.206 371.45 463.953 368.79C703.38 364.675 679.363 410.967 818.983 410.967C833.883 410.967 858.545 390.907 842.104 368.79C885.262 357.474 928.465 424.343 956.165 468.06C997.188 436.466 1001.89 406.338 975.176 357.474C1042.48 330.728 1066.63 492.749 1100.03 490.691C1133.42 488.634 1146.78 416.11 1112.87 400.68C1187.37 357.474 1229.23 508.782 1289.62 542.641C1350 576.5 1484.04 559.095 1588.64 505.093C1703.22 445.943 1741.24 391.422 1785.96 267.463C1809.63 201.869 1900 130.131 1900 130.131Z" fill=""/>
<path d="M1900 130.131V0H0V150.191C0 150.191 37.5068 174.88 86.3169 248.432C135.127 321.984 309.206 371.45 463.953 368.79C703.38 364.675 679.363 410.967 818.983 410.967C833.883 410.967 858.545 390.907 842.104 368.79C885.262 357.474 928.465 424.343 956.165 468.06C997.188 436.466 1001.89 406.338 975.176 357.474C1042.48 330.728 1066.63 492.749 1100.03 490.691C1133.42 488.634 1146.78 416.11 1112.87 400.68C1187.37 357.474 1229.23 508.782 1289.62 542.641C1350 576.5 1484.04 559.095 1588.64 505.093C1703.22 445.943 1741.24 391.422 1785.96 267.463C1809.63 201.869 1900 130.131 1900 130.131Z" fill="#181818" fill-opacity="0.8"/>
<path d="M1351.43 950.651C1346.51 969.095 1327.63 977.285 1309 984.867C1329.24 983.644 1340.59 981.961 1360.32 962.969C1373.05 976.404 1381.03 983.417 1412.33 984.867C1388.7 978.368 1370.59 966.39 1366.48 950.651C1363.16 937.915 1354.17 940.384 1351.43 950.651Z" fill="#181818"/>
<path d="M1351.43 950.651C1346.51 969.095 1327.63 977.285 1309 984.867C1329.24 983.644 1340.59 981.961 1360.32 962.969C1373.05 976.404 1381.03 983.417 1412.33 984.867C1388.7 978.368 1370.59 966.39 1366.48 950.651C1363.16 937.915 1354.17 940.384 1351.43 950.651Z" fill="" fill-opacity="0.1"/>
<path d="M1454.76 950.651C1449.84 969.095 1430.97 977.285 1412.33 984.867C1432.57 983.644 1443.92 981.961 1463.66 962.969C1476.38 976.404 1484.36 983.417 1515.67 984.867C1492.03 978.368 1473.92 966.39 1469.82 950.651C1466.49 937.915 1457.5 940.384 1454.76 950.651Z" fill="#181818"/>
<path d="M1454.76 950.651C1449.84 969.095 1430.97 977.285 1412.33 984.867C1432.57 983.644 1443.92 981.961 1463.66 962.969C1476.38 976.404 1484.36 983.417 1515.67 984.867C1492.03 978.368 1473.92 966.39 1469.82 950.651C1466.49 937.915 1457.5 940.384 1454.76 950.651Z" fill="" fill-opacity="0.1"/>
<path d="M1558.1 950.651C1553.18 969.095 1534.3 977.285 1515.67 984.867C1535.91 983.644 1547.26 981.961 1566.99 962.969C1579.72 976.404 1587.7 983.417 1619 984.867C1595.37 978.368 1577.26 966.39 1573.15 950.651C1569.83 937.915 1560.83 940.384 1558.1 950.651Z" fill="#181818"/>
<path d="M1558.1 950.651C1553.18 969.095 1534.3 977.285 1515.67 984.867C1535.91 983.644 1547.26 981.961 1566.99 962.969C1579.72 976.404 1587.7 983.417 1619 984.867C1595.37 978.368 1577.26 966.39 1573.15 950.651C1569.83 937.915 1560.83 940.384 1558.1 950.651Z" fill="" fill-opacity="0.1"/>
<path d="M776.795 1340.28C773.226 1353.67 759.525 1359.61 746 1365.11C760.69 1364.23 768.927 1363 783.252 1349.22C792.489 1358.97 798.279 1364.06 821 1365.11C803.848 1360.4 790.702 1351.7 787.722 1340.28C785.311 1331.03 778.782 1332.83 776.795 1340.28Z" fill=""/>
<path d="M776.795 1340.28C773.226 1353.67 759.525 1359.61 746 1365.11C760.69 1364.23 768.927 1363 783.252 1349.22C792.489 1358.97 798.279 1364.06 821 1365.11C803.848 1360.4 790.702 1351.7 787.722 1340.28C785.311 1331.03 778.782 1332.83 776.795 1340.28Z" fill="#181818" fill-opacity="0.8"/>
<path d="M851.794 1340.28C848.225 1353.67 834.524 1359.61 820.999 1365.11C835.689 1364.23 843.926 1363 858.251 1349.22C867.488 1358.97 873.278 1364.06 896 1365.11C878.848 1360.4 865.702 1351.7 862.722 1340.28C860.31 1331.03 853.781 1332.83 851.794 1340.28Z" fill=""/>
<path d="M851.794 1340.28C848.225 1353.67 834.524 1359.61 820.999 1365.11C835.689 1364.23 843.926 1363 858.251 1349.22C867.488 1358.97 873.278 1364.06 896 1365.11C878.848 1360.4 865.702 1351.7 862.722 1340.28C860.31 1331.03 853.781 1332.83 851.794 1340.28Z" fill="#181818" fill-opacity="0.8"/>
<path d="M593.954 1478.53C589.671 1494.6 573.23 1501.73 557 1508.34C574.628 1507.27 584.512 1505.81 601.702 1489.26C612.786 1500.97 619.734 1507.07 647 1508.34C626.418 1502.68 610.643 1492.24 607.066 1478.53C604.173 1467.44 596.338 1469.59 593.954 1478.53Z" fill=""/>
<path d="M593.954 1478.53C589.671 1494.6 573.23 1501.73 557 1508.34C574.628 1507.27 584.512 1505.81 601.702 1489.26C612.786 1500.97 619.734 1507.07 647 1508.34C626.418 1502.68 610.643 1492.24 607.066 1478.53C604.173 1467.44 596.338 1469.59 593.954 1478.53Z" fill="#181818" fill-opacity="0.8"/>
<path d="M683.954 1478.53C679.671 1494.6 663.23 1501.73 647 1508.34C664.628 1507.27 674.512 1505.81 691.702 1489.26C702.786 1500.97 709.734 1507.07 737 1508.34C716.418 1502.68 700.643 1492.24 697.066 1478.53C694.173 1467.44 686.338 1469.59 683.954 1478.53Z" fill=""/>
<path d="M683.954 1478.53C679.671 1494.6 663.23 1501.73 647 1508.34C664.628 1507.27 674.512 1505.81 691.702 1489.26C702.786 1500.97 709.734 1507.07 737 1508.34C716.418 1502.68 700.643 1492.24 697.066 1478.53C694.173 1467.44 686.338 1469.59 683.954 1478.53Z" fill="#181818" fill-opacity="0.8"/>
<path d="M153.165 1407.21C147.931 1426.84 127.836 1435.56 108 1443.63C129.545 1442.33 141.626 1440.54 162.635 1420.32C176.183 1434.62 184.675 1442.09 217.999 1443.63C192.844 1436.71 173.563 1423.96 169.192 1407.21C165.655 1393.65 156.079 1396.28 153.165 1407.21Z" fill=""/>
<path d="M153.165 1407.21C147.931 1426.84 127.836 1435.56 108 1443.63C129.545 1442.33 141.626 1440.54 162.635 1420.32C176.183 1434.62 184.675 1442.09 217.999 1443.63C192.844 1436.71 173.563 1423.96 169.192 1407.21C165.655 1393.65 156.079 1396.28 153.165 1407.21Z" fill="#181818" fill-opacity="0.8"/>
<path d="M263.163 1407.21C257.929 1426.84 237.834 1435.56 217.998 1443.63C239.543 1442.33 251.624 1440.54 272.634 1420.32C286.181 1434.62 294.673 1442.09 327.997 1443.63C302.842 1436.71 283.561 1423.96 279.19 1407.21C275.653 1393.65 266.077 1396.28 263.163 1407.21Z" fill=""/>
<path d="M263.163 1407.21C257.929 1426.84 237.834 1435.56 217.998 1443.63C239.543 1442.33 251.624 1440.54 272.634 1420.32C286.181 1434.62 294.673 1442.09 327.997 1443.63C302.842 1436.71 283.561 1423.96 279.19 1407.21C275.653 1393.65 266.077 1396.28 263.163 1407.21Z" fill="#181818" fill-opacity="0.8"/>
<path d="M373.166 1407.21C367.931 1426.84 347.836 1435.56 328 1443.63C349.545 1442.33 361.626 1440.54 382.636 1420.32C396.183 1434.62 404.675 1442.09 438 1443.63C412.844 1436.71 393.563 1423.96 389.192 1407.21C385.655 1393.65 376.079 1396.28 373.166 1407.21Z" fill=""/>
<path d="M373.166 1407.21C367.931 1426.84 347.836 1435.56 328 1443.63C349.545 1442.33 361.626 1440.54 382.636 1420.32C396.183 1434.62 404.675 1442.09 438 1443.63C412.844 1436.71 393.563 1423.96 389.192 1407.21C385.655 1393.65 376.079 1396.28 373.166 1407.21Z" fill="#181818" fill-opacity="0.8"/>
<path d="M725.795 1121.28C722.226 1134.67 708.525 1140.61 695 1146.11C709.69 1145.23 717.927 1144 732.252 1130.22C741.489 1139.97 747.279 1145.06 770 1146.11C752.848 1141.4 739.702 1132.7 736.722 1121.28C734.311 1112.03 727.782 1113.83 725.795 1121.28Z" fill="#181818"/>
<path d="M725.795 1121.28C722.226 1134.67 708.525 1140.61 695 1146.11C709.69 1145.23 717.927 1144 732.252 1130.22C741.489 1139.97 747.279 1145.06 770 1146.11C752.848 1141.4 739.702 1132.7 736.722 1121.28C734.311 1112.03 727.782 1113.83 725.795 1121.28Z" fill="" fill-opacity="0.1"/>
<path d="M800.794 1121.28C797.225 1134.67 783.524 1140.61 769.999 1146.11C784.689 1145.23 792.926 1144 807.251 1130.22C816.488 1139.97 822.278 1145.06 845 1146.11C827.848 1141.4 814.702 1132.7 811.722 1121.28C809.31 1112.03 802.781 1113.83 800.794 1121.28Z" fill="#181818"/>
<path d="M800.794 1121.28C797.225 1134.67 783.524 1140.61 769.999 1146.11C784.689 1145.23 792.926 1144 807.251 1130.22C816.488 1139.97 822.278 1145.06 845 1146.11C827.848 1141.4 814.702 1132.7 811.722 1121.28C809.31 1112.03 802.781 1113.83 800.794 1121.28Z" fill="" fill-opacity="0.1"/>
<path d="M1106 998.5L1109.5 986L1098.5 995C1098.5 995 1084.23 986.143 1074.5 987.5C1063.71 989.006 1052 993.5 1052 1002.5C1052 1009 1064.84 1013.7 1074.5 1014.5C1084.66 1015.34 1099.5 1007 1099.5 1007L1111.5 1011.5L1106 998.5Z" fill="#181818"/>
<path d="M1106 998.5L1109.5 986L1098.5 995C1098.5 995 1084.23 986.143 1074.5 987.5C1063.71 989.006 1052 993.5 1052 1002.5C1052 1009 1064.84 1013.7 1074.5 1014.5C1084.66 1015.34 1099.5 1007 1099.5 1007L1111.5 1011.5L1106 998.5Z" fill="" fill-opacity="0.1"/>
<path d="M1051 1049.5L1054.5 1037L1043.5 1046C1043.5 1046 1029.23 1037.14 1019.5 1038.5C1008.71 1040.01 997 1044.5 997 1053.5C997 1060 1009.84 1064.7 1019.5 1065.5C1029.66 1066.34 1044.5 1058 1044.5 1058L1056.5 1062.5L1051 1049.5Z" fill="#181818"/>
<path d="M1051 1049.5L1054.5 1037L1043.5 1046C1043.5 1046 1029.23 1037.14 1019.5 1038.5C1008.71 1040.01 997 1044.5 997 1053.5C997 1060 1009.84 1064.7 1019.5 1065.5C1029.66 1066.34 1044.5 1058 1044.5 1058L1056.5 1062.5L1051 1049.5Z" fill="" fill-opacity="0.1"/>
<path d="M1530.93 1310C1512.6 1321.72 1499.43 1321 1499.43 1321L1553.43 1339C1553.43 1339 1555.93 1339 1565.93 1323.5C1575.93 1308 1571.96 1275.16 1557.43 1246.5C1569.43 1199.91 1564.28 1186.6 1540.93 1178C1540.93 1178 1540.93 1184.5 1538.43 1195C1535.93 1205.5 1520.43 1219 1532.43 1243.5C1505.43 1228 1491.93 1246.5 1481.44 1242C1470.94 1237.5 1466.43 1229.5 1466.43 1229.5C1462.43 1256.5 1486.08 1286.51 1540.43 1267C1554.7 1290.03 1549.27 1298.28 1530.93 1310Z" fill="#181818"/>
<path d="M1530.93 1310C1512.6 1321.72 1499.43 1321 1499.43 1321L1553.43 1339C1553.43 1339 1555.93 1339 1565.93 1323.5C1575.93 1308 1571.96 1275.16 1557.43 1246.5C1569.43 1199.91 1564.28 1186.6 1540.93 1178C1540.93 1178 1540.93 1184.5 1538.43 1195C1535.93 1205.5 1520.43 1219 1532.43 1243.5C1505.43 1228 1491.93 1246.5 1481.44 1242C1470.94 1237.5 1466.43 1229.5 1466.43 1229.5C1462.43 1256.5 1486.08 1286.51 1540.43 1267C1554.7 1290.03 1549.27 1298.28 1530.93 1310Z" fill="" fill-opacity="0.1"/>
<path d="M0 1852.06V2043.95L1900 2046V1837.18C1900 1837.18 1806.36 1606.29 1489.09 1635.54C1171.83 1664.78 1014.73 1736.1 980.447 1714.04C946.162 1691.97 972.771 1604.05 1014.73 1623.73C958.955 1542.67 871.5 1720.19 840.237 1720.19C725.5 1720.19 796 1604.5 848.936 1608.86C738.406 1521.63 667.277 1741.97 615.594 1720.19C563.911 1698.42 576.369 1633.37 628.387 1599.11C537.301 1523.17 472.313 1697.6 370.482 1704.8C154.843 1720.06 94.7751 1764.83 0 1852.06Z" fill=""/>
<path d="M0 1852.06V2043.95L1900 2046V1837.18C1900 1837.18 1806.36 1606.29 1489.09 1635.54C1171.83 1664.78 1014.73 1736.1 980.447 1714.04C946.162 1691.97 972.771 1604.05 1014.73 1623.73C958.955 1542.67 871.5 1720.19 840.237 1720.19C725.5 1720.19 796 1604.5 848.936 1608.86C738.406 1521.63 667.277 1741.97 615.594 1720.19C563.911 1698.42 576.369 1633.37 628.387 1599.11C537.301 1523.17 472.313 1697.6 370.482 1704.8C154.843 1720.06 94.7751 1764.83 0 1852.06Z" fill="#181818" fill-opacity="0.8"/>
<path d="M622.954 1804.53C618.671 1820.6 602.23 1827.73 586 1834.34C603.628 1833.27 613.512 1831.81 630.702 1815.26C641.786 1826.97 648.734 1833.07 676 1834.34C655.418 1828.68 639.643 1818.24 636.066 1804.53C633.173 1793.44 625.338 1795.59 622.954 1804.53Z" fill="#181818"/>
<path d="M622.954 1804.53C618.671 1820.6 602.23 1827.73 586 1834.34C603.628 1833.27 613.512 1831.81 630.702 1815.26C641.786 1826.97 648.734 1833.07 676 1834.34C655.418 1828.68 639.643 1818.24 636.066 1804.53C633.173 1793.44 625.338 1795.59 622.954 1804.53Z" fill="" fill-opacity="0.1"/>
<path d="M712.954 1804.53C708.671 1820.6 692.23 1827.73 676 1834.34C693.628 1833.27 703.512 1831.81 720.702 1815.26C731.786 1826.97 738.734 1833.07 766 1834.34C745.418 1828.68 729.643 1818.24 726.066 1804.53C723.173 1793.44 715.338 1795.59 712.954 1804.53Z" fill="#181818"/>
<path d="M712.954 1804.53C708.671 1820.6 692.23 1827.73 676 1834.34C693.628 1833.27 703.512 1831.81 720.702 1815.26C731.786 1826.97 738.734 1833.07 766 1834.34C745.418 1828.68 729.643 1818.24 726.066 1804.53C723.173 1793.44 715.338 1795.59 712.954 1804.53Z" fill="" fill-opacity="0.1"/>
<path d="M391.529 1911.71L395.647 1897L382.706 1907.59C382.706 1907.59 365.912 1897.17 354.471 1898.76C341.775 1900.54 328 1905.82 328 1916.41C328 1924.06 343.101 1929.59 354.471 1930.53C366.422 1931.51 383.882 1921.71 383.882 1921.71L398 1927L391.529 1911.71Z" fill="#181818"/>
<path d="M391.529 1911.71L395.647 1897L382.706 1907.59C382.706 1907.59 365.912 1897.17 354.471 1898.76C341.775 1900.54 328 1905.82 328 1916.41C328 1924.06 343.101 1929.59 354.471 1930.53C366.422 1931.51 383.882 1921.71 383.882 1921.71L398 1927L391.529 1911.71Z" fill="" fill-opacity="0.1"/>
<path d="M1002.38 1807.5L1005.32 1797L996.076 1804.56C996.076 1804.56 984.08 1797.12 975.908 1798.26C966.839 1799.53 957 1803.3 957 1810.87C957 1816.33 967.787 1820.28 975.908 1820.95C984.444 1821.65 996.916 1814.65 996.916 1814.65L1007 1818.43L1002.38 1807.5Z" fill="#181818"/>
<path d="M1002.38 1807.5L1005.32 1797L996.076 1804.56C996.076 1804.56 984.08 1797.12 975.908 1798.26C966.839 1799.53 957 1803.3 957 1810.87C957 1816.33 967.787 1820.28 975.908 1820.95C984.444 1821.65 996.916 1814.65 996.916 1814.65L1007 1818.43L1002.38 1807.5Z" fill="" fill-opacity="0.1"/>
<path d="M1552.85 822.87C1727.06 858.299 1900 1028.61 1900 1065.91C1900 1092.01 1717.38 1322 1552.85 1322C1334.65 1322 1164.79 1198.31 950.31 1198.31C706.044 1198.31 559.344 1266.82 324.829 1198.31C189.888 1158.88 -0.0103995 1055.97 0 1042.91C0.0148545 1024.26 166.773 916.106 324.829 896.838C572.821 866.605 714.694 941.027 963.948 924.188C1196.76 908.459 1324.17 776.361 1552.85 822.87Z" fill=""/>
<path d="M1552.85 822.87C1727.06 858.299 1900 1028.61 1900 1065.91C1900 1092.01 1717.38 1322 1552.85 1322C1334.65 1322 1164.79 1198.31 950.31 1198.31C706.044 1198.31 559.344 1266.82 324.829 1198.31C189.888 1158.88 -0.0103995 1055.97 0 1042.91C0.0148545 1024.26 166.773 916.106 324.829 896.838C572.821 866.605 714.694 941.027 963.948 924.188C1196.76 908.459 1324.17 776.361 1552.85 822.87Z" fill="#181818" fill-opacity="0.8"/>
<path d="M1437 327.321C1433.41 340.797 1419.61 346.78 1406 352.321C1420.79 351.427 1429.08 350.198 1443.5 336.321C1452.8 346.137 1458.63 351.261 1481.5 352.321C1464.23 347.572 1451 338.82 1448 327.321C1445.57 318.015 1439 319.819 1437 327.321Z" fill="#181818"/>
<path d="M1437 327.321C1433.41 340.797 1419.61 346.78 1406 352.321C1420.79 351.427 1429.08 350.198 1443.5 336.321C1452.8 346.137 1458.63 351.261 1481.5 352.321C1464.23 347.572 1451 338.82 1448 327.321C1445.57 318.015 1439 319.819 1437 327.321Z" fill="" fill-opacity="0.1"/>
<path d="M1512.5 327.321C1508.91 340.797 1495.11 346.78 1481.5 352.321C1496.29 351.427 1504.58 350.198 1519 336.321C1528.3 346.137 1534.13 351.261 1557 352.321C1539.73 347.572 1526.5 338.82 1523.5 327.321C1521.07 318.015 1514.5 319.819 1512.5 327.321Z" fill="#181818"/>
<path d="M1512.5 327.321C1508.91 340.797 1495.11 346.78 1481.5 352.321C1496.29 351.427 1504.58 350.198 1519 336.321C1528.3 346.137 1534.13 351.261 1557 352.321C1539.73 347.572 1526.5 338.82 1523.5 327.321C1521.07 318.015 1514.5 319.819 1512.5 327.321Z" fill="" fill-opacity="0.1"/>
<path d="M316.867 577.944C311.783 597.013 292.266 605.481 273 613.321C293.925 612.056 305.659 610.316 326.065 590.68C339.222 604.571 347.47 611.822 379.837 613.321C355.404 606.601 336.678 594.217 332.433 577.944C328.997 564.776 319.697 567.329 316.867 577.944Z" fill=""/>
<path d="M316.867 577.944C311.783 597.013 292.266 605.481 273 613.321C293.925 612.056 305.659 610.316 326.065 590.68C339.222 604.571 347.47 611.822 379.837 613.321C355.404 606.601 336.678 594.217 332.433 577.944C328.997 564.776 319.697 567.329 316.867 577.944Z" fill="#181818" fill-opacity="0.8"/>
<path d="M423.704 577.944C418.62 597.013 399.103 605.481 379.837 613.321C400.762 612.056 412.496 610.316 432.902 590.68C446.06 604.571 454.307 611.822 486.674 613.321C462.241 606.601 443.515 594.217 439.27 577.944C435.834 564.776 426.534 567.329 423.704 577.944Z" fill=""/>
<path d="M423.704 577.944C418.62 597.013 399.103 605.481 379.837 613.321C400.762 612.056 412.496 610.316 432.902 590.68C446.06 604.571 454.307 611.822 486.674 613.321C462.241 606.601 443.515 594.217 439.27 577.944C435.834 564.776 426.534 567.329 423.704 577.944Z" fill="#181818" fill-opacity="0.8"/>
<path d="M530.541 577.944C525.457 597.013 505.94 605.481 486.674 613.321C507.599 612.056 519.333 610.316 539.739 590.68C552.897 604.571 561.144 611.822 593.511 613.321C569.079 606.601 550.352 594.217 546.107 577.944C542.671 564.776 533.371 567.329 530.541 577.944Z" fill=""/>
<path d="M530.541 577.944C525.457 597.013 505.94 605.481 486.674 613.321C507.599 612.056 519.333 610.316 539.739 590.68C552.897 604.571 561.144 611.822 593.511 613.321C569.079 606.601 550.352 594.217 546.107 577.944C542.671 564.776 533.371 567.329 530.541 577.944Z" fill="#181818" fill-opacity="0.8"/>
</svg>
