<svg width="1900" height="847" viewBox="0 0 1900 847" fill="none" xmlns="http://www.w3.org/2000/svg">
<path d="M596.572 631.652C604.188 631.934 610.591 625.988 610.873 618.372C611.165 610.479 604.465 603.779 596.572 604.071C588.956 604.353 583.01 610.756 583.292 618.372C583.564 625.701 589.243 631.38 596.572 631.652Z" fill="#181818"/>
<path d="M596.572 631.652C604.188 631.934 610.591 625.988 610.873 618.372C611.165 610.479 604.465 603.779 596.572 604.071C588.956 604.353 583.01 610.756 583.292 618.372C583.564 625.701 589.243 631.38 596.572 631.652Z" fill="white" fill-opacity="0.05"/>
<path d="M646.115 631.652C653.591 631.652 659.628 625.843 659.905 618.372C660.192 610.619 653.873 604.071 646.115 604.071C638.356 604.071 632.037 610.619 632.324 618.372C632.601 625.843 638.638 631.652 646.115 631.652Z" fill="#181818"/>
<path d="M646.115 631.652C653.591 631.652 659.628 625.843 659.905 618.372C660.192 610.619 653.873 604.071 646.115 604.071C638.356 604.071 632.037 610.619 632.324 618.372C632.601 625.843 638.638 631.652 646.115 631.652Z" fill="white" fill-opacity="0.05"/>
<path d="M696.169 631.652C703.475 631.011 709.177 625.701 709.448 618.372C709.73 610.756 703.761 604.739 696.169 604.071C687.868 603.34 680.03 610.045 680.335 618.372C680.631 626.437 688.129 632.357 696.169 631.652Z" fill="#181818"/>
<path d="M696.169 631.652C703.475 631.011 709.177 625.701 709.448 618.372C709.73 610.756 703.761 604.739 696.169 604.071C687.868 603.34 680.03 610.045 680.335 618.372C680.631 626.437 688.129 632.357 696.169 631.652Z" fill="white" fill-opacity="0.05"/>
<path d="M596.572 686.813V655.146M646.115 686.813V655.146M696.169 686.813V655.146M596.572 631.652C604.188 631.934 610.591 625.988 610.873 618.372C611.165 610.479 604.465 603.779 596.572 604.071C588.956 604.353 583.01 610.756 583.292 618.372C583.564 625.701 589.243 631.38 596.572 631.652ZM646.115 631.652C653.591 631.652 659.628 625.843 659.905 618.372C660.192 610.619 653.873 604.071 646.115 604.071C638.356 604.071 632.037 610.619 632.324 618.372C632.601 625.843 638.638 631.652 646.115 631.652ZM696.169 631.652C703.475 631.011 709.177 625.701 709.448 618.372C709.73 610.756 703.761 604.739 696.169 604.071C687.868 603.34 680.03 610.045 680.335 618.372C680.631 626.437 688.129 632.357 696.169 631.652Z" stroke="#181818" stroke-width="6"/>
<path d="M596.572 686.813V655.146M646.115 686.813V655.146M696.169 686.813V655.146M596.572 631.652C604.188 631.934 610.591 625.988 610.873 618.372C611.165 610.479 604.465 603.779 596.572 604.071C588.956 604.353 583.01 610.756 583.292 618.372C583.564 625.701 589.243 631.38 596.572 631.652ZM646.115 631.652C653.591 631.652 659.628 625.843 659.905 618.372C660.192 610.619 653.873 604.071 646.115 604.071C638.356 604.071 632.037 610.619 632.324 618.372C632.601 625.843 638.638 631.652 646.115 631.652ZM696.169 631.652C703.475 631.011 709.177 625.701 709.448 618.372C709.73 610.756 703.761 604.739 696.169 604.071C687.868 603.34 680.03 610.045 680.335 618.372C680.631 626.437 688.129 632.357 696.169 631.652Z" stroke="white" stroke-opacity="0.05" stroke-width="6"/>
<path d="M550.085 575.98H646.106H740.085V645.953H932.128L993.929 756.786H1152.26C1152.12 745.926 1160.81 737.008 1171.67 736.867C1182.67 736.724 1191.59 745.785 1191.59 756.786C1191.59 767.787 1182.67 776.848 1171.67 776.705C1160.81 776.564 1152.12 767.646 1152.26 756.786H993.929L932.128 645.953H740.085V715.926H550.085V645.953H480.623C481.049 656.805 472.074 666.017 461.214 665.872C450.492 665.729 442.034 656.672 442.316 645.953C442.591 635.519 450.778 627.194 461.214 627.055C471.792 626.914 480.481 635.375 480.623 645.953H550.085V575.98Z" fill="#181818"/>
<path d="M550.085 575.98H646.106H740.085V645.953H932.128L993.929 756.786H1152.26C1152.12 745.926 1160.81 737.008 1171.67 736.867C1182.67 736.724 1191.59 745.785 1191.59 756.786C1191.59 767.787 1182.67 776.848 1171.67 776.705C1160.81 776.564 1152.12 767.646 1152.26 756.786H993.929L932.128 645.953H740.085V715.926H550.085V645.953H480.623C481.049 656.805 472.074 666.017 461.214 665.872C450.492 665.729 442.034 656.672 442.316 645.953C442.591 635.519 450.778 627.194 461.214 627.055C471.792 626.914 480.481 635.375 480.623 645.953H550.085V575.98Z" fill="white" fill-opacity="0.05"/>
<path d="M1262.07 756.786C1262.07 745.785 1253.15 737.006 1242.15 736.867C1231.01 736.726 1221.72 745.643 1221.72 756.786C1221.72 767.929 1231.01 776.846 1242.15 776.705C1253.15 776.566 1262.07 767.787 1262.07 756.786Z" fill="#181818"/>
<path d="M1262.07 756.786C1262.07 745.785 1253.15 737.006 1242.15 736.867C1231.01 736.726 1221.72 745.643 1221.72 756.786C1221.72 767.929 1231.01 776.846 1242.15 776.705C1253.15 776.566 1262.07 767.787 1262.07 756.786Z" fill="white" fill-opacity="0.05"/>
<path d="M1332.05 756.786C1332.05 745.499 1322.39 736.585 1311.11 736.867C1300.11 737.142 1291.19 745.785 1291.19 756.786C1291.19 767.787 1300.11 776.43 1311.11 776.705C1322.39 776.988 1332.05 768.073 1332.05 756.786Z" fill="#181818"/>
<path d="M1332.05 756.786C1332.05 745.499 1322.39 736.585 1311.11 736.867C1300.11 737.142 1291.19 745.785 1291.19 756.786C1291.19 767.787 1300.11 776.43 1311.11 776.705C1322.39 776.988 1332.05 768.073 1332.05 756.786Z" fill="white" fill-opacity="0.05"/>
<path d="M1402.02 756.786C1402.02 745.499 1392.37 736.727 1381.08 736.867C1369.94 737.004 1360.65 745.643 1360.65 756.786C1360.65 767.929 1369.94 776.568 1381.08 776.705C1392.37 776.845 1402.02 768.073 1402.02 756.786Z" fill="#181818"/>
<path d="M1402.02 756.786C1402.02 745.499 1392.37 736.727 1381.08 736.867C1369.94 737.004 1360.65 745.643 1360.65 756.786C1360.65 767.929 1369.94 776.568 1381.08 776.705C1392.37 776.845 1402.02 768.073 1402.02 756.786Z" fill="white" fill-opacity="0.05"/>
<path d="M1471.48 756.786C1471.48 745.354 1461.44 736.143 1450.03 736.867C1439.33 737.545 1431.13 746.063 1431.13 756.786C1431.13 767.509 1439.33 776.027 1450.03 776.705C1461.44 777.429 1471.48 768.218 1471.48 756.786Z" fill="#181818"/>
<path d="M1471.48 756.786C1471.48 745.354 1461.44 736.143 1450.03 736.867C1439.33 737.545 1431.13 746.063 1431.13 756.786C1431.13 767.509 1439.33 776.027 1450.03 776.705C1461.44 777.429 1471.48 768.218 1471.48 756.786Z" fill="white" fill-opacity="0.05"/>
<path d="M266.617 845V682.216L426.483 522.861H646.106V575.98M646.106 575.98H550.085V645.953M646.106 575.98H740.085V645.953M550.085 645.953V715.926H740.085V645.953M550.085 645.953C550.085 645.953 507.749 645.953 480.623 645.953M480.623 645.953C480.481 635.375 471.792 626.914 461.214 627.055C450.778 627.194 442.591 635.519 442.316 645.953C442.034 656.672 450.492 665.729 461.214 665.872C472.074 666.017 481.049 656.805 480.623 645.953ZM740.085 645.953H932.128L993.929 756.786C993.929 756.786 1090.43 756.786 1152.26 756.786M1152.26 756.786C1152.12 745.926 1160.81 737.008 1171.67 736.867C1182.67 736.724 1191.59 745.785 1191.59 756.786C1191.59 767.787 1182.67 776.848 1171.67 776.705C1160.81 776.564 1152.12 767.646 1152.26 756.786ZM1242.15 736.867C1253.15 737.006 1262.07 745.785 1262.07 756.786C1262.07 767.787 1253.15 776.566 1242.15 776.705C1231.01 776.846 1221.72 767.929 1221.72 756.786C1221.72 745.643 1231.01 736.726 1242.15 736.867ZM1311.11 736.867C1322.39 736.585 1332.05 745.499 1332.05 756.786C1332.05 768.073 1322.39 776.988 1311.11 776.705C1300.11 776.431 1291.19 767.787 1291.19 756.786C1291.19 745.785 1300.11 737.142 1311.11 736.867ZM1381.08 736.867C1392.37 736.727 1402.02 745.499 1402.02 756.786C1402.02 768.073 1392.37 776.845 1381.08 776.705C1369.94 776.568 1360.65 767.929 1360.65 756.786C1360.65 745.643 1369.94 737.004 1381.08 736.867ZM1450.03 736.867C1461.44 736.143 1471.48 745.354 1471.48 756.786C1471.48 768.218 1461.44 777.429 1450.03 776.705C1439.33 776.027 1431.13 767.509 1431.13 756.786C1431.13 746.063 1439.33 737.545 1450.03 736.867Z" stroke="#181818" stroke-width="6"/>
<path d="M266.617 845V682.216L426.483 522.861H646.106V575.98M646.106 575.98H550.085V645.953M646.106 575.98H740.085V645.953M550.085 645.953V715.926H740.085V645.953M550.085 645.953C550.085 645.953 507.749 645.953 480.623 645.953M480.623 645.953C480.481 635.375 471.792 626.914 461.214 627.055C450.778 627.194 442.591 635.519 442.316 645.953C442.034 656.672 450.492 665.729 461.214 665.872C472.074 666.017 481.049 656.805 480.623 645.953ZM740.085 645.953H932.128L993.929 756.786C993.929 756.786 1090.43 756.786 1152.26 756.786M1152.26 756.786C1152.12 745.926 1160.81 737.008 1171.67 736.867C1182.67 736.724 1191.59 745.785 1191.59 756.786C1191.59 767.787 1182.67 776.848 1171.67 776.705C1160.81 776.564 1152.12 767.646 1152.26 756.786ZM1242.15 736.867C1253.15 737.006 1262.07 745.785 1262.07 756.786C1262.07 767.787 1253.15 776.566 1242.15 776.705C1231.01 776.846 1221.72 767.929 1221.72 756.786C1221.72 745.643 1231.01 736.726 1242.15 736.867ZM1311.11 736.867C1322.39 736.585 1332.05 745.499 1332.05 756.786C1332.05 768.073 1322.39 776.988 1311.11 776.705C1300.11 776.431 1291.19 767.787 1291.19 756.786C1291.19 745.785 1300.11 737.142 1311.11 736.867ZM1381.08 736.867C1392.37 736.727 1402.02 745.499 1402.02 756.786C1402.02 768.073 1392.37 776.845 1381.08 776.705C1369.94 776.568 1360.65 767.929 1360.65 756.786C1360.65 745.643 1369.94 737.004 1381.08 736.867ZM1450.03 736.867C1461.44 736.143 1471.48 745.354 1471.48 756.786C1471.48 768.218 1461.44 777.429 1450.03 776.705C1439.33 776.027 1431.13 767.509 1431.13 756.786C1431.13 746.063 1439.33 737.545 1450.03 736.867Z" stroke="white" stroke-opacity="0.05" stroke-width="6"/>
<path d="M27.5806 23.4946L0 0V846.5H144.032V649.677L346.29 449.462H885.134L957.15 592.984H1063.9L1128.25 703.817H1742.69L1814.7 798.5H1900V157.823L1841.77 219.624H1633.9L1598.66 169.059H1040.4L1009.76 219.624H885.134L832.526 305.43H750.806L702.284 219.624H109.301L27.5806 139.946V23.4946Z" fill="#181818"/>
<path d="M27.5806 23.4946L0 0V846.5H144.032V649.677L346.29 449.462H885.134L957.15 592.984H1063.9L1128.25 703.817H1742.69L1814.7 798.5H1900V157.823L1841.77 219.624H1633.9L1598.66 169.059H1040.4L1009.76 219.624H885.134L832.526 305.43H750.806L702.284 219.624H109.301L27.5806 139.946V23.4946Z" fill="white" fill-opacity="0.05"/>
<path d="M1065.43 399.409H1069.43V395.409H1065.43V399.409ZM1044.1 514.839C1044.1 526.621 1053.65 536.172 1065.43 536.172C1077.21 536.172 1086.76 526.621 1086.76 514.839C1086.76 503.057 1077.21 493.506 1065.43 493.506C1053.65 493.506 1044.1 503.057 1044.1 514.839ZM1018.44 403.409H1065.43V395.409H1018.44V403.409ZM1061.43 399.409V514.839H1069.43V399.409H1061.43ZM1014.44 383.576V399.409H1022.44V383.576H1014.44ZM1014.44 399.409V414.221H1022.44V399.409H1014.44Z" fill="#181818"/>
<path d="M1065.43 399.409H1069.43V395.409H1065.43V399.409ZM1044.1 514.839C1044.1 526.621 1053.65 536.172 1065.43 536.172C1077.21 536.172 1086.76 526.621 1086.76 514.839C1086.76 503.057 1077.21 493.506 1065.43 493.506C1053.65 493.506 1044.1 503.057 1044.1 514.839ZM1018.44 403.409H1065.43V395.409H1018.44V403.409ZM1061.43 399.409V514.839H1069.43V399.409H1061.43ZM1014.44 383.576V399.409H1022.44V383.576H1014.44ZM1014.44 399.409V414.221H1022.44V399.409H1014.44Z" fill="white" fill-opacity="0.1"/>
<path d="M502.58 388.173V413.711" stroke="#181818" stroke-width="8"/>
<path d="M502.58 388.173V413.711" stroke="white" stroke-opacity="0.1" stroke-width="8"/>
<path d="M524.033 388.173V413.711" stroke="#181818" stroke-width="8"/>
<path d="M524.033 388.173V413.711" stroke="white" stroke-opacity="0.1" stroke-width="8"/>
<path d="M545.485 388.173V413.711" stroke="#181818" stroke-width="8"/>
<path d="M545.485 388.173V413.711" stroke="white" stroke-opacity="0.1" stroke-width="8"/>
<path d="M566.937 388.173V413.711" stroke="#181818" stroke-width="8"/>
<path d="M566.937 388.173V413.711" stroke="white" stroke-opacity="0.1" stroke-width="8"/>
<path d="M588.386 388.173V413.711" stroke="#181818" stroke-width="8"/>
<path d="M588.386 388.173V413.711" stroke="white" stroke-opacity="0.1" stroke-width="8"/>
<path d="M609.838 388.173V413.711" stroke="#181818" stroke-width="8"/>
<path d="M609.838 388.173V413.711" stroke="white" stroke-opacity="0.1" stroke-width="8"/>
<path d="M631.29 388.173V413.711" stroke="#181818" stroke-width="8"/>
<path d="M631.29 388.173V413.711" stroke="white" stroke-opacity="0.1" stroke-width="8"/>
<path d="M172.634 328.415H168.634V330.121L169.866 331.302L172.634 328.415ZM246.694 399.409L243.925 402.297L245.086 403.409H246.694V399.409ZM438.344 399.409C438.344 411.192 447.895 420.743 459.677 420.743C471.46 420.743 481.011 411.192 481.011 399.409C481.011 387.627 471.46 378.076 459.677 378.076C447.895 378.076 438.344 387.627 438.344 399.409ZM168.634 219.625V328.415H176.634V219.625H168.634ZM169.866 331.302L243.925 402.297L249.462 396.522L175.402 325.527L169.866 331.302ZM246.694 403.409H459.677V395.409H246.694V403.409Z" fill="#181818"/>
<path d="M172.634 328.415H168.634V330.121L169.866 331.302L172.634 328.415ZM246.694 399.409L243.925 402.297L245.086 403.409H246.694V399.409ZM438.344 399.409C438.344 411.192 447.895 420.743 459.677 420.743C471.46 420.743 481.011 411.192 481.011 399.409C481.011 387.627 471.46 378.076 459.677 378.076C447.895 378.076 438.344 387.627 438.344 399.409ZM168.634 219.625V328.415H176.634V219.625H168.634ZM169.866 331.302L243.925 402.297L249.462 396.522L175.402 325.527L169.866 331.302ZM246.694 403.409H459.677V395.409H246.694V403.409Z" fill="white" fill-opacity="0.1"/>
<path d="M888.198 289.597V285.597H886.046L884.86 287.393L888.198 289.597ZM815.671 399.409V403.409H817.823L819.008 401.613L815.671 399.409ZM653.88 399.409C653.88 411.191 663.432 420.742 675.214 420.742C686.996 420.742 696.547 411.191 696.547 399.409C696.547 387.627 686.996 378.076 675.214 378.076C663.432 378.076 653.88 387.627 653.88 399.409ZM1115.48 285.597H888.198V293.597H1115.48V285.597ZM884.86 287.393L812.333 397.205L819.008 401.613L891.535 291.802L884.86 287.393ZM815.671 395.409H675.214V403.409H815.671V395.409Z" fill="#181818"/>
<path d="M888.198 289.597V285.597H886.046L884.86 287.393L888.198 289.597ZM815.671 399.409V403.409H817.823L819.008 401.613L815.671 399.409ZM653.88 399.409C653.88 411.191 663.432 420.742 675.214 420.742C686.996 420.742 696.547 411.191 696.547 399.409C696.547 387.627 686.996 378.076 675.214 378.076C663.432 378.076 653.88 387.627 653.88 399.409ZM1115.48 285.597H888.198V293.597H1115.48V285.597ZM884.86 287.393L812.333 397.205L819.008 401.613L891.535 291.802L884.86 287.393ZM815.671 395.409H675.214V403.409H815.671V395.409Z" fill="white" fill-opacity="0.1"/>
<path d="M988.318 408.138L971.431 398.388L988.318 388.638V408.138Z" fill="#181818"/>
<path d="M988.318 408.138L971.431 398.388L988.318 388.638V408.138Z" fill="white" fill-opacity="0.1"/>
<path d="M988.318 408.138L971.431 398.388L988.318 388.638V408.138Z" stroke="#181818"/>
<path d="M988.318 408.138L971.431 398.388L988.318 388.638V408.138Z" stroke="white" stroke-opacity="0.1"/>
<path d="M951.544 408.138L934.657 398.388L951.544 388.638V408.138Z" fill="#181818"/>
<path d="M951.544 408.138L934.657 398.388L951.544 388.638V408.138Z" fill="white" fill-opacity="0.1"/>
<path d="M951.544 408.138L934.657 398.388L951.544 388.638V408.138Z" stroke="#181818"/>
<path d="M951.544 408.138L934.657 398.388L951.544 388.638V408.138Z" stroke="white" stroke-opacity="0.1"/>
<path d="M919.875 408.138L902.988 398.388L919.875 388.638V408.138Z" fill="#181818"/>
<path d="M919.875 408.138L902.988 398.388L919.875 388.638V408.138Z" fill="white" fill-opacity="0.1"/>
<path d="M919.875 408.138L902.988 398.388L919.875 388.638V408.138Z" stroke="#181818"/>
<path d="M919.875 408.138L902.988 398.388L919.875 388.638V408.138Z" stroke="white" stroke-opacity="0.1"/>
</svg>
