<svg width="1900" height="731" viewBox="0 0 1900 731" fill="none" xmlns="http://www.w3.org/2000/svg">
<path d="M1702.69 533.656L1900 730.966V2.04466H0V499.919L64.4068 435.513H208.044L306.188 533.656H420.689L437.046 514.743H1009.04L1020.29 533.656H1125.07L1175.17 623.621H1260.02L1308.07 533.656H1702.69Z" fill="#181818"/>
<path d="M1702.69 533.656L1900 730.966V2.04466H0V499.919L64.4068 435.513H208.044L306.188 533.656H420.689L437.046 514.743H1009.04L1020.29 533.656H1125.07L1175.17 623.621H1260.02L1308.07 533.656H1702.69Z" fill="white" fill-opacity="0.05"/>
<path d="M1193.06 624.532V574.949L1321.87 459.425" stroke="#181818" stroke-width="6"/>
<path d="M1193.06 624.532V574.949L1321.87 459.425" stroke="white" stroke-opacity="0.1" stroke-width="6"/>
<path d="M1079.94 379.284C1079.94 388.121 1087.1 395.284 1095.94 395.284C1104.78 395.284 1111.94 388.121 1111.94 379.284C1111.94 370.448 1104.78 363.284 1095.94 363.284C1087.1 363.284 1079.94 370.448 1079.94 379.284ZM1098.94 481.517V379.284H1092.94V481.517H1098.94Z" fill="#181818"/>
<path d="M1079.94 379.284C1079.94 388.121 1087.1 395.284 1095.94 395.284C1104.78 395.284 1111.94 388.121 1111.94 379.284C1111.94 370.448 1104.78 363.284 1095.94 363.284C1087.1 363.284 1079.94 370.448 1079.94 379.284ZM1098.94 481.517V379.284H1092.94V481.517H1098.94Z" fill="white" fill-opacity="0.1"/>
<path d="M872.407 283.697C872.407 292.533 879.57 299.697 888.407 299.697C897.243 299.697 904.407 292.533 904.407 283.697C904.407 274.86 897.243 267.697 888.407 267.697C879.57 267.697 872.407 274.86 872.407 283.697ZM888.407 400.754H885.407V401.902L886.173 402.756L888.407 400.754ZM959.459 479.984L957.225 481.987L958.119 482.984H959.459V479.984ZM1079.43 479.984C1079.43 488.821 1086.59 495.984 1095.43 495.984C1104.26 495.984 1111.43 488.821 1111.43 479.984C1111.43 471.148 1104.26 463.984 1095.43 463.984C1086.59 463.984 1079.43 471.148 1079.43 479.984ZM885.407 283.697V400.754H891.407V283.697H885.407ZM886.173 402.756L957.225 481.987L961.692 477.981L890.64 398.751L886.173 402.756ZM959.459 482.984H1095.43V476.984H959.459V482.984Z" fill="#181818"/>
<path d="M872.407 283.697C872.407 292.533 879.57 299.697 888.407 299.697C897.243 299.697 904.407 292.533 904.407 283.697C904.407 274.86 897.243 267.697 888.407 267.697C879.57 267.697 872.407 274.86 872.407 283.697ZM888.407 400.754H885.407V401.902L886.173 402.756L888.407 400.754ZM959.459 479.984L957.225 481.987L958.119 482.984H959.459V479.984ZM1079.43 479.984C1079.43 488.821 1086.59 495.984 1095.43 495.984C1104.26 495.984 1111.43 488.821 1111.43 479.984C1111.43 471.148 1104.26 463.984 1095.43 463.984C1086.59 463.984 1079.43 471.148 1079.43 479.984ZM885.407 283.697V400.754H891.407V283.697H885.407ZM886.173 402.756L957.225 481.987L961.692 477.981L890.64 398.751L886.173 402.756ZM959.459 482.984H1095.43V476.984H959.459V482.984Z" fill="white" fill-opacity="0.1"/>
<path d="M794.999 285.741C794.999 297.523 804.55 307.075 816.332 307.075C828.115 307.075 837.666 297.523 837.666 285.741C837.666 273.959 828.115 264.408 816.332 264.408C804.55 264.408 794.999 273.959 794.999 285.741ZM820.332 391.041V285.741H812.332V391.041H820.332ZM793.33 395.041H816.332V387.041H793.33V395.041ZM816.332 395.041H841.891V387.041H816.332V395.041Z" fill="#181818"/>
<path d="M794.999 285.741C794.999 297.523 804.55 307.075 816.332 307.075C828.115 307.075 837.666 297.523 837.666 285.741C837.666 273.959 828.115 264.408 816.332 264.408C804.55 264.408 794.999 273.959 794.999 285.741ZM820.332 391.041V285.741H812.332V391.041H820.332ZM793.33 395.041H816.332V387.041H793.33V395.041ZM816.332 395.041H841.891V387.041H816.332V395.041Z" fill="white" fill-opacity="0.1"/>
<path d="M532.125 213.156H528.125V217.156H532.125V213.156ZM736.591 213.156V217.156H740.591V213.156H736.591ZM736.591 181.463V177.463H732.591V181.463H736.591ZM942.59 181.463H946.59V177.463H942.59V181.463ZM942.59 311.299H938.59V315.299H942.59V311.299ZM1625.51 311.299V315.299H1627.18L1628.36 314.107L1625.51 311.299ZM1728.25 207.022L1731.1 209.829L1732.25 208.661V207.022H1728.25ZM1706.92 128.302C1706.92 140.084 1716.47 149.636 1728.25 149.636C1740.03 149.636 1749.58 140.084 1749.58 128.302C1749.58 116.52 1740.03 106.969 1728.25 106.969C1716.47 106.969 1706.92 116.52 1706.92 128.302ZM528.125 181.463V213.156H536.125V181.463H528.125ZM532.125 217.156H736.591V209.156H532.125V217.156ZM740.591 213.156V181.463H732.591V213.156H740.591ZM736.591 185.463H942.59V177.463H736.591V185.463ZM938.59 181.463V311.299H946.59V181.463H938.59ZM942.59 315.299H1625.51V307.299H942.59V315.299ZM1628.36 314.107L1731.1 209.829L1725.4 204.214L1622.66 308.492L1628.36 314.107ZM1732.25 207.022V128.302H1724.25V207.022H1732.25Z" fill="#181818"/>
<path d="M532.125 213.156H528.125V217.156H532.125V213.156ZM736.591 213.156V217.156H740.591V213.156H736.591ZM736.591 181.463V177.463H732.591V181.463H736.591ZM942.59 181.463H946.59V177.463H942.59V181.463ZM942.59 311.299H938.59V315.299H942.59V311.299ZM1625.51 311.299V315.299H1627.18L1628.36 314.107L1625.51 311.299ZM1728.25 207.022L1731.1 209.829L1732.25 208.661V207.022H1728.25ZM1706.92 128.302C1706.92 140.084 1716.47 149.636 1728.25 149.636C1740.03 149.636 1749.58 140.084 1749.58 128.302C1749.58 116.52 1740.03 106.969 1728.25 106.969C1716.47 106.969 1706.92 116.52 1706.92 128.302ZM528.125 181.463V213.156H536.125V181.463H528.125ZM532.125 217.156H736.591V209.156H532.125V217.156ZM740.591 213.156V181.463H732.591V213.156H740.591ZM736.591 185.463H942.59V177.463H736.591V185.463ZM938.59 181.463V311.299H946.59V181.463H938.59ZM942.59 315.299H1625.51V307.299H942.59V315.299ZM1628.36 314.107L1731.1 209.829L1725.4 204.214L1622.66 308.492L1628.36 314.107ZM1732.25 207.022V128.302H1724.25V207.022H1732.25Z" fill="white" fill-opacity="0.1"/>
<path d="M426.158 478.45C426.158 487.287 433.322 494.45 442.158 494.45C450.995 494.45 458.158 487.287 458.158 478.45C458.158 469.614 450.995 462.45 442.158 462.45C433.322 462.45 426.158 469.614 426.158 478.45ZM659.914 478.45V481.45H661.127L662 480.607L659.914 478.45ZM736.589 404.331L738.674 406.488L739.589 405.604V404.331H736.589ZM720.589 284.719C720.589 293.555 727.753 300.719 736.589 300.719C745.426 300.719 752.589 293.555 752.589 284.719C752.589 275.882 745.426 268.719 736.589 268.719C727.753 268.719 720.589 275.882 720.589 284.719ZM442.158 481.45H659.914V475.45H442.158V481.45ZM662 480.607L738.674 406.488L734.504 402.174L657.829 476.293L662 480.607ZM739.589 404.331V284.719H733.589V404.331H739.589Z" fill="#181818"/>
<path d="M426.158 478.45C426.158 487.287 433.322 494.45 442.158 494.45C450.995 494.45 458.158 487.287 458.158 478.45C458.158 469.614 450.995 462.45 442.158 462.45C433.322 462.45 426.158 469.614 426.158 478.45ZM659.914 478.45V481.45H661.127L662 480.607L659.914 478.45ZM736.589 404.331L738.674 406.488L739.589 405.604V404.331H736.589ZM720.589 284.719C720.589 293.555 727.753 300.719 736.589 300.719C745.426 300.719 752.589 293.555 752.589 284.719C752.589 275.882 745.426 268.719 736.589 268.719C727.753 268.719 720.589 275.882 720.589 284.719ZM442.158 481.45H659.914V475.45H442.158V481.45ZM662 480.607L738.674 406.488L734.504 402.174L657.829 476.293L662 480.607ZM739.589 404.331V284.719H733.589V404.331H739.589Z" fill="white" fill-opacity="0.1"/>
<path d="M256.605 112.968H251.605V115.083L253.123 116.556L256.605 112.968ZM430.401 281.652L426.919 285.24L428.374 286.652H430.401V281.652ZM604.623 281.652C604.623 296.38 616.562 308.319 631.289 308.319C646.017 308.319 657.956 296.38 657.956 281.652C657.956 266.924 646.017 254.985 631.289 254.985C616.562 254.985 604.623 266.924 604.623 281.652ZM251.605 1.53369V112.968H261.605V1.53369H251.605ZM253.123 116.556L426.919 285.24L433.884 278.064L260.088 109.38L253.123 116.556ZM430.401 286.652H631.289V276.652H430.401V286.652Z" fill="#181818"/>
<path d="M256.605 112.968H251.605V115.083L253.123 116.556L256.605 112.968ZM430.401 281.652L426.919 285.24L428.374 286.652H430.401V281.652ZM604.623 281.652C604.623 296.38 616.562 308.319 631.289 308.319C646.017 308.319 657.956 296.38 657.956 281.652C657.956 266.924 646.017 254.985 631.289 254.985C616.562 254.985 604.623 266.924 604.623 281.652ZM251.605 1.53369V112.968H261.605V1.53369H251.605ZM253.123 116.556L426.919 285.24L433.884 278.064L260.088 109.38L253.123 116.556ZM430.401 286.652H631.289V276.652H430.401V286.652Z" fill="white" fill-opacity="0.1"/>
<path d="M172.775 136.481H167.775V138.552L169.24 140.017L172.775 136.481ZM404.333 368.039L400.797 371.574L402.262 373.039H404.333V368.039ZM603.09 368.039C603.09 382.766 615.029 394.705 629.757 394.705C644.484 394.705 656.423 382.766 656.423 368.039C656.423 353.311 644.484 341.372 629.757 341.372C615.029 341.372 603.09 353.311 603.09 368.039ZM167.775 0V136.481H177.775V0H167.775ZM169.24 140.017L400.797 371.574L407.868 364.503L176.311 132.946L169.24 140.017ZM404.333 373.039H629.757V363.039H404.333V373.039Z" fill="#181818"/>
<path d="M172.775 136.481H167.775V138.552L169.24 140.017L172.775 136.481ZM404.333 368.039L400.797 371.574L402.262 373.039H404.333V368.039ZM603.09 368.039C603.09 382.766 615.029 394.705 629.757 394.705C644.484 394.705 656.423 382.766 656.423 368.039C656.423 353.311 644.484 341.372 629.757 341.372C615.029 341.372 603.09 353.311 603.09 368.039ZM167.775 0V136.481H177.775V0H167.775ZM169.24 140.017L400.797 371.574L407.868 364.503L176.311 132.946L169.24 140.017ZM404.333 373.039H629.757V363.039H404.333V373.039Z" fill="white" fill-opacity="0.1"/>
<path d="M807.527 429.645L816.843 413.51L826.158 429.645H807.527Z" fill="#181818"/>
<path d="M807.527 429.645L816.843 413.51L826.158 429.645H807.527Z" fill="white" fill-opacity="0.1"/>
<path d="M807.527 429.645L816.843 413.51L826.158 429.645H807.527Z" stroke="#181818"/>
<path d="M807.527 429.645L816.843 413.51L826.158 429.645H807.527Z" stroke="white" stroke-opacity="0.1"/>
<path d="M807.527 462.36L816.843 446.225L826.158 462.36H807.527Z" fill="#181818"/>
<path d="M807.527 462.36L816.843 446.225L826.158 462.36H807.527Z" fill="white" fill-opacity="0.1"/>
<path d="M807.527 462.36L816.843 446.225L826.158 462.36H807.527Z" stroke="#181818"/>
<path d="M807.527 462.36L816.843 446.225L826.158 462.36H807.527Z" stroke="white" stroke-opacity="0.1"/>
<path d="M807.527 497.119L816.843 480.984L826.158 497.119H807.527Z" fill="#181818"/>
<path d="M807.527 497.119L816.843 480.984L826.158 497.119H807.527Z" fill="white" fill-opacity="0.1"/>
<path d="M807.527 497.119L816.843 480.984L826.158 497.119H807.527Z" stroke="#181818"/>
<path d="M807.527 497.119L816.843 480.984L826.158 497.119H807.527Z" stroke="white" stroke-opacity="0.1"/>
</svg>
