<svg width="1698" height="497" viewBox="0 0 1698 497" fill="none" xmlns="http://www.w3.org/2000/svg">
<path d="M1627.66 415.804C1589.65 406.155 1574.97 408.164 1552.38 415.804C1533.96 366.002 1489.11 341.078 1422.93 348.996C1400.86 345.454 1384.35 349.048 1371.49 358.425C1271.28 272.356 1122.88 336.771 1111.52 474.806C1075.64 470.501 1056.44 474.175 1024.32 497C982.373 472.752 957.717 467.152 909.503 486.174C871 430.5 788 410.5 729.15 474.806C707.476 463.978 673.897 457.483 650.067 463.978C635.444 451.528 610.725 445.587 584.543 449.365C548.788 352.469 414.471 335.689 339.199 416.887C262.282 384.406 202.706 402.811 164.804 449.365C99.7308 433.837 86.6909 405.548 71.1075 348.682C-2.01937 344.351 -43.1776 197.657 71.1075 144.068C87.8871 85.0653 138.256 64.4956 183.76 69.9087C218.954 34.1812 263.756 27.4438 321.326 38.5129C481.63 -62.1728 584.543 55.2915 584.543 153.811C614.321 150.562 642.61 157.537 670.658 177.629C705.493 157.483 729.208 150.576 797.933 165.72C835.294 70.9894 974.485 36.3458 1036.78 153.811C1061.95 135.103 1078.19 129.269 1112.06 130.535C1155.92 40.1349 1266.95 7.6565 1354.7 95.3501C1406.48 78.1174 1451.45 76.8897 1497.67 101.014C1553.56 112.183 1583.58 143.589 1589.21 209.566C1704.56 214.436 1744.64 361.671 1627.66 415.804Z" fill="white"/>
<path d="M1627.66 415.804C1589.65 406.155 1574.97 408.164 1552.38 415.804C1533.96 366.002 1489.11 341.078 1422.93 348.996C1400.86 345.454 1384.35 349.048 1371.49 358.425C1271.28 272.356 1122.88 336.771 1111.52 474.806C1075.64 470.501 1056.44 474.175 1024.32 497C982.373 472.752 957.717 467.152 909.503 486.174C871 430.5 788 410.5 729.15 474.806C707.476 463.978 673.897 457.483 650.067 463.978C635.444 451.528 610.725 445.587 584.543 449.365C548.788 352.469 414.471 335.689 339.199 416.887C262.282 384.406 202.706 402.811 164.804 449.365C99.7308 433.837 86.6909 405.548 71.1075 348.682C-2.01937 344.351 -43.1776 197.657 71.1075 144.068C87.8871 85.0653 138.256 64.4956 183.76 69.9087C218.954 34.1812 263.756 27.4438 321.326 38.5129C481.63 -62.1728 584.543 55.2915 584.543 153.811C614.321 150.562 642.61 157.537 670.658 177.629C705.493 157.483 729.208 150.576 797.933 165.72C835.294 70.9894 974.485 36.3458 1036.78 153.811C1061.95 135.103 1078.19 129.269 1112.06 130.535C1155.92 40.1349 1266.95 7.6565 1354.7 95.3501C1406.48 78.1174 1451.45 76.8897 1497.67 101.014C1553.56 112.183 1583.58 143.589 1589.21 209.566C1704.56 214.436 1744.64 361.671 1627.66 415.804Z" fill="#181818" fill-opacity="0.4"/>
<path d="M585.5 370.501C543 264.501 395.5 265 339.5 340.5C262 306.001 205 324.501 166.5 369L131.5 454.001L702.319 480.377L906 477.5L909.5 408C862 341.5 769.5 340.5 731.5 398.5C708 386 680.5 379.001 649 386C635 373 618.5 368 585.5 370.501Z" fill="#181818"/>
<path d="M585.5 370.501C543 264.501 395.5 265 339.5 340.5C262 306.001 205 324.501 166.5 369L131.5 454.001L702.319 480.377L906 477.5L909.5 408C862 341.5 769.5 340.5 731.5 398.5C708 386 680.5 379.001 649 386C635 373 618.5 368 585.5 370.501Z" fill="white" fill-opacity="0.1"/>
<path d="M306.815 263.111C311.24 242.029 328.229 232.667 345 224C326.785 225.399 316.571 227.322 298.808 249.031C287.354 233.674 280.175 225.657 252 224C273.268 231.429 289.57 245.121 293.265 263.111C296.255 277.67 304.351 274.847 306.815 263.111Z" fill="#CCCCCC"/>
<path d="M306.815 263.111C311.24 242.029 328.229 232.667 345 224C326.785 225.399 316.571 227.322 298.808 249.031C287.354 233.674 280.175 225.657 252 224C273.268 231.429 289.57 245.121 293.265 263.111C296.255 277.67 304.351 274.847 306.815 263.111Z" fill="#181818" fill-opacity="0.6"/>
<path d="M903.815 168.111C908.24 147.029 925.229 137.667 942 129C923.785 130.399 913.571 132.322 895.808 154.031C884.354 138.674 877.175 130.657 849 129C870.268 136.429 886.57 150.121 890.265 168.111C893.255 182.67 901.351 179.847 903.815 168.111Z" fill="#CCCCCC"/>
<path d="M903.815 168.111C908.24 147.029 925.229 137.667 942 129C923.785 130.399 913.571 132.322 895.808 154.031C884.354 138.674 877.175 130.657 849 129C870.268 136.429 886.57 150.121 890.265 168.111C893.255 182.67 901.351 179.847 903.815 168.111Z" fill="#181818" fill-opacity="0.6"/>
<path d="M1026.81 420.111C1031.24 399.029 1048.23 389.667 1065 381C1046.78 382.399 1036.57 384.322 1018.81 406.031C1007.35 390.674 1000.17 382.657 972 381C993.268 388.429 1009.57 402.121 1013.26 420.111C1016.26 434.67 1024.35 431.847 1026.81 420.111Z" fill="#CCCCCC"/>
<path d="M1026.81 420.111C1031.24 399.029 1048.23 389.667 1065 381C1046.78 382.399 1036.57 384.322 1018.81 406.031C1007.35 390.674 1000.17 382.657 972 381C993.268 388.429 1009.57 402.121 1013.26 420.111C1016.26 434.67 1024.35 431.847 1026.81 420.111Z" fill="#181818" fill-opacity="0.6"/>
</svg>
