<svg width="1698" height="557" viewBox="0 0 1698 557" fill="none" xmlns="http://www.w3.org/2000/svg">
<path d="M1627.66 415.804C1589.65 406.155 1574.97 408.164 1552.38 415.804C1533.96 366.002 1489.11 341.078 1422.93 348.996C1400.86 345.454 1384.35 349.048 1371.49 358.425C1271.28 272.356 1122.88 336.771 1111.52 474.806C1075.64 470.501 1056.44 474.175 1024.32 497C982.373 472.752 957.717 467.152 909.503 486.174C871 430.5 788 410.5 729.15 474.806C707.476 463.978 673.897 457.483 650.067 463.978C635.444 451.528 610.725 445.587 584.543 449.365C548.788 352.469 414.471 335.689 339.199 416.887C262.282 384.406 202.706 402.811 164.804 449.365C99.7308 433.837 86.6909 405.548 71.1075 348.682C-2.01937 344.351 -43.1776 197.657 71.1075 144.068C87.8871 85.0653 138.256 64.4956 183.76 69.9087C218.954 34.1812 263.756 27.4438 321.326 38.5129C481.63 -62.1728 584.543 55.2915 584.543 153.811C614.321 150.562 642.61 157.537 670.658 177.629C705.493 157.483 729.208 150.576 797.933 165.72C835.294 70.9894 974.485 36.3458 1036.78 153.811C1061.95 135.103 1078.19 129.269 1112.06 130.535C1155.92 40.1349 1266.95 7.6565 1354.7 95.3501C1406.48 78.1174 1451.45 76.8897 1497.67 101.014C1553.56 112.183 1583.58 143.589 1589.21 209.566C1704.56 214.436 1744.64 361.671 1627.66 415.804Z" fill="white"/>
<path d="M1627.66 415.804C1589.65 406.155 1574.97 408.164 1552.38 415.804C1533.96 366.002 1489.11 341.078 1422.93 348.996C1400.86 345.454 1384.35 349.048 1371.49 358.425C1271.28 272.356 1122.88 336.771 1111.52 474.806C1075.64 470.501 1056.44 474.175 1024.32 497C982.373 472.752 957.717 467.152 909.503 486.174C871 430.5 788 410.5 729.15 474.806C707.476 463.978 673.897 457.483 650.067 463.978C635.444 451.528 610.725 445.587 584.543 449.365C548.788 352.469 414.471 335.689 339.199 416.887C262.282 384.406 202.706 402.811 164.804 449.365C99.7308 433.837 86.6909 405.548 71.1075 348.682C-2.01937 344.351 -43.1776 197.657 71.1075 144.068C87.8871 85.0653 138.256 64.4956 183.76 69.9087C218.954 34.1812 263.756 27.4438 321.326 38.5129C481.63 -62.1728 584.543 55.2915 584.543 153.811C614.321 150.562 642.61 157.537 670.658 177.629C705.493 157.483 729.208 150.576 797.933 165.72C835.294 70.9894 974.485 36.3458 1036.78 153.811C1061.95 135.103 1078.19 129.269 1112.06 130.535C1155.92 40.1349 1266.95 7.6565 1354.7 95.3501C1406.48 78.1174 1451.45 76.8897 1497.67 101.014C1553.56 112.183 1583.58 143.589 1589.21 209.566C1704.56 214.436 1744.64 361.671 1627.66 415.804Z" fill="#181818" fill-opacity="0.4"/>
<path d="M671 498L522.43 332V481.945L671 498Z" fill="#E40016"/>
<path d="M671 498L522.43 332V481.945L671 498Z" fill="black" fill-opacity="0.9"/>
<path d="M522.43 332L422 471.092L522.43 481.945V332Z" fill="#E40016"/>
<path d="M522.43 332L422 471.092L522.43 481.945V332Z" fill="black" fill-opacity="0.8"/>
<path d="M793 482.5L614 282V463.108L793 482.5Z" fill="#E40016"/>
<path d="M793 482.5L614 282V463.108L793 482.5Z" fill="black" fill-opacity="0.9"/>
<path d="M614 282L493 450L614 463.108V282Z" fill="#E40016"/>
<path d="M614 282L493 450L614 463.108V282Z" fill="black" fill-opacity="0.8"/>
<path d="M847 497L732.5 361C730.313 364.2 731.589 450.556 732.5 493.334L847 497Z" fill="#E40016"/>
<path d="M847 497L732.5 361C730.313 364.2 731.589 450.556 732.5 493.334L847 497Z" fill="black" fill-opacity="0.9"/>
<path d="M732.5 361L644 490.5L732.5 493.334C731.589 450.556 730.313 364.2 732.5 361Z" fill="#E40016"/>
<path d="M732.5 361L644 490.5L732.5 493.334C731.589 450.556 730.313 364.2 732.5 361Z" fill="black" fill-opacity="0.8"/>
<path d="M585.5 446.501C543 340.501 395.5 341 339.5 416.5C262 382.001 205 400.501 166.5 445L131.5 530.001L702.319 556.377L906 553.5L909.5 484C862 417.5 769.5 416.5 731.5 474.5C708 462 680.5 455.001 649 462C635 449 618.5 444 585.5 446.501Z" fill="#181818"/>
<path d="M585.5 446.501C543 340.501 395.5 341 339.5 416.5C262 382.001 205 400.501 166.5 445L131.5 530.001L702.319 556.377L906 553.5L909.5 484C862 417.5 769.5 416.5 731.5 474.5C708 462 680.5 455.001 649 462C635 449 618.5 444 585.5 446.501Z" fill="white" fill-opacity="0.1"/>
<path d="M306.815 263.111C311.24 242.029 328.229 232.667 345 224C326.785 225.399 316.571 227.322 298.808 249.031C287.354 233.674 280.175 225.657 252 224C273.268 231.429 289.57 245.121 293.265 263.111C296.255 277.67 304.351 274.847 306.815 263.111Z" fill="#CCCCCC"/>
<path d="M306.815 263.111C311.24 242.029 328.229 232.667 345 224C326.785 225.399 316.571 227.322 298.808 249.031C287.354 233.674 280.175 225.657 252 224C273.268 231.429 289.57 245.121 293.265 263.111C296.255 277.67 304.351 274.847 306.815 263.111Z" fill="#181818" fill-opacity="0.6"/>
<path d="M903.815 244.111C908.24 223.029 925.229 213.667 942 205C923.785 206.399 913.571 208.322 895.808 230.031C884.354 214.674 877.175 206.657 849 205C870.268 212.429 886.57 226.121 890.265 244.111C893.255 258.67 901.351 255.847 903.815 244.111Z" fill="#CCCCCC"/>
<path d="M903.815 244.111C908.24 223.029 925.229 213.667 942 205C923.785 206.399 913.571 208.322 895.808 230.031C884.354 214.674 877.175 206.657 849 205C870.268 212.429 886.57 226.121 890.265 244.111C893.255 258.67 901.351 255.847 903.815 244.111Z" fill="#181818" fill-opacity="0.6"/>
<path d="M1026.81 420.111C1031.24 399.029 1048.23 389.667 1065 381C1046.78 382.399 1036.57 384.322 1018.81 406.031C1007.35 390.674 1000.17 382.657 972 381C993.268 388.429 1009.57 402.121 1013.26 420.111C1016.26 434.67 1024.35 431.847 1026.81 420.111Z" fill="#CCCCCC"/>
<path d="M1026.81 420.111C1031.24 399.029 1048.23 389.667 1065 381C1046.78 382.399 1036.57 384.322 1018.81 406.031C1007.35 390.674 1000.17 382.657 972 381C993.268 388.429 1009.57 402.121 1013.26 420.111C1016.26 434.67 1024.35 431.847 1026.81 420.111Z" fill="#181818" fill-opacity="0.6"/>
</svg>
