<svg width="1849" height="1045" viewBox="0 0 1849 1045" fill="none" xmlns="http://www.w3.org/2000/svg">
<path d="M1326 354.5L1147 154V335.108L1326 354.5Z" fill="#E40016"/>
<path d="M1326 354.5L1147 154V335.108L1326 354.5Z" fill="black" fill-opacity="0.9"/>
<path d="M1147 154L1026 322L1147 335.108V154Z" fill="#E40016"/>
<path d="M1147 154L1026 322L1147 335.108V154Z" fill="black" fill-opacity="0.8"/>
<path d="M1389 373L1240.43 207V356.945L1389 373Z" fill="#E40016"/>
<path d="M1389 373L1240.43 207V356.945L1389 373Z" fill="black" fill-opacity="0.9"/>
<path d="M1240.43 207L1140 346.092L1240.43 356.945V207Z" fill="#E40016"/>
<path d="M1240.43 207L1140 346.092L1240.43 356.945V207Z" fill="black" fill-opacity="0.8"/>
<path d="M107.406 613.704C105.814 656.758 118.732 685.817 155.333 714.877C179.016 672.364 279.642 653.794 331.878 755.775C421.228 734.249 497.659 751.47 556.843 866.089C606.923 838.109 652.674 848.872 729.621 886C757.095 871.474 790.466 869.859 841.061 886C869.154 794.812 974.009 765.461 1093.5 840.262C1149.48 739.093 1294.27 694.966 1500.42 757.389C1527.84 721.233 1559.62 698.73 1630.13 733.711C1649.64 690.043 1732.94 645.457 1828.19 698.73C1860.23 621.029 1860.5 567.428 1791.59 515.764C1830.36 444.195 1773.31 334.954 1661.87 354.862C1630.99 293.619 1552.09 242.933 1456.26 287.057C1379.85 198.806 1260.36 223.022 1210.82 318.807C1178.65 319.616 1155.4 325.268 1139.79 343.026C1087.58 233.785 937.408 246.162 903.498 355.941C860.438 342.488 822.761 338.183 775.395 364.013C752.298 344.89 723.723 340.874 691.966 342.488C679.587 189.657 521.88 152.526 432.508 224.095C334.548 206.34 263.499 258.539 236.586 338.718C104.2 304.819 -29.2923 471.102 107.406 613.704Z" fill="white"/>
<path d="M107.406 613.704C105.814 656.758 118.732 685.817 155.333 714.877C179.016 672.364 279.642 653.794 331.878 755.775C421.228 734.249 497.659 751.47 556.843 866.089C606.923 838.109 652.674 848.872 729.621 886C757.095 871.474 790.466 869.859 841.061 886C869.154 794.812 974.009 765.461 1093.5 840.262C1149.48 739.093 1294.27 694.966 1500.42 757.389C1527.84 721.233 1559.62 698.73 1630.13 733.711C1649.64 690.043 1732.94 645.457 1828.19 698.73C1860.23 621.029 1860.5 567.428 1791.59 515.764C1830.36 444.195 1773.31 334.954 1661.87 354.862C1630.99 293.619 1552.09 242.933 1456.26 287.057C1379.85 198.806 1260.36 223.022 1210.82 318.807C1178.65 319.616 1155.4 325.268 1139.79 343.026C1087.58 233.785 937.408 246.162 903.498 355.941C860.438 342.488 822.761 338.183 775.395 364.013C752.298 344.89 723.723 340.874 691.966 342.488C679.587 189.657 521.88 152.526 432.508 224.095C334.548 206.34 263.499 258.539 236.586 338.718C104.2 304.819 -29.2923 471.102 107.406 613.704Z" fill="#181818" fill-opacity="0.4"/>
<path d="M418.5 96.2272L403 80.2272C436.5 39.7277 519.5 28.7286 566 80.2272L549.5 96.2272C512.5 60.7285 456 61.7285 418.5 96.2272Z" fill="#E40016"/>
<path d="M418.5 96.2272L403 80.2272C436.5 39.7277 519.5 28.7286 566 80.2272L549.5 96.2272C512.5 60.7285 456 61.7285 418.5 96.2272Z" fill="black" fill-opacity="0.7"/>
<path d="M371 48.2278L387 64.7279C440 14.7286 521 8.72863 582.5 64.2278L598.5 48.2278C536 -19.7715 422.5 -12.2714 371 48.2278Z" fill="#E40016"/>
<path d="M371 48.2278L387 64.7279C440 14.7286 521 8.72863 582.5 64.2278L598.5 48.2278C536 -19.7715 422.5 -12.2714 371 48.2278Z" fill="#181818" fill-opacity="0.9"/>
<circle cx="485" cy="164" r="18" fill="#E40016"/>
<circle cx="485" cy="164" r="18" fill="#181818" fill-opacity="0.2"/>
<path d="M435 112.226L450.5 127.726C473.5 109.228 495.5 110.228 518 127.726L534 112.226C504.5 80.7285 454 88.2295 435 112.226Z" fill="#E40016"/>
<path d="M435 112.226L450.5 127.726C473.5 109.228 495.5 110.228 518 127.726L534 112.226C504.5 80.7285 454 88.2295 435 112.226Z" fill="black" fill-opacity="0.5"/>
<path d="M388 399L593 400.5C604.5 400.5 608 415 608 421V706H640.5C658 706 673.5 721.5 673.5 743V877H296V731C303.821 723.587 309.313 715.125 323.5 706H364V421L388 399Z" fill="black"/>
<path d="M597.5 402L381 400L475.5 362H495L597.5 402Z" fill="black" stroke="black"/>
<path d="M535.5 450H520V694.5H535.5V450Z" fill="#CCCCCC"/>
<path d="M535.5 450H520V694.5H535.5V450Z" fill="black" fill-opacity="0.5"/>
<path d="M579.5 450H563V694.5H579.5V450Z" fill="#CCCCCC"/>
<path d="M579.5 450H563V694.5H579.5V450Z" fill="black" fill-opacity="0.5"/>
<rect x="474" y="202" width="22" height="160" fill="black"/>
<path d="M487 694V399H384.417C373.462 399 364 409.554 364 419.605V694H392.883V451.266H408.32V694H438.198V451.266H454.632V694H487Z" fill="#CCCCCC"/>
<path d="M487 694V399H384.417C373.462 399 364 409.554 364 419.605V694H392.883V451.266H408.32V694H438.198V451.266H454.632V694H487Z" fill="black" fill-opacity="0.5"/>
<path d="M550.5 733H534V861H550.5V733Z" fill="#CCCCCC"/>
<path d="M550.5 733H534V861H550.5V733Z" fill="black" fill-opacity="0.5"/>
<path d="M601.5 733H582V861H601.5V733Z" fill="#CCCCCC"/>
<path d="M601.5 733H582V861H601.5V733Z" fill="black" fill-opacity="0.5"/>
<path d="M645 733H628V861H645V733Z" fill="#CCCCCC"/>
<path d="M645 733H628V861H645V733Z" fill="black" fill-opacity="0.5"/>
<path d="M472 861V706H317.561C300.004 706 296.001 718.837 296 733.101V861H370.211V733.101H387.761V861H416.342V733.101H432.387V861H472Z" fill="#CCCCCC"/>
<path d="M472 861V706H317.561C300.004 706 296.001 718.837 296 733.101V861H370.211V733.101H387.761V861H416.342V733.101H432.387V861H472Z" fill="black" fill-opacity="0.5"/>
<path d="M1424.85 467.076C1424.85 467.076 1417.29 376.608 1323.35 373.076V571.076H1449.85C1525.86 550.077 1493.36 448.077 1424.85 467.076Z" fill="#181818"/>
<path d="M1424.85 467.076C1424.85 467.076 1417.29 376.608 1323.35 373.076V571.076H1449.85C1525.86 550.077 1493.36 448.077 1424.85 467.076Z" fill="white" fill-opacity="0.8"/>
<path d="M1323.35 373.076C1256.86 370.576 1230.85 430.576 1230.85 430.576C1145.86 423.077 1120.37 557.577 1216.85 571.076H1323.35V373.076Z" fill="#CCCCCC"/>
<path d="M1323.35 373.076C1256.86 370.576 1230.85 430.576 1230.85 430.576C1145.86 423.077 1120.37 557.577 1216.85 571.076H1323.35V373.076Z" fill="#181818" fill-opacity="0.6"/>
<path d="M109.5 616H-2.5V1044.5H836.5V884C806 872.5 747 857 709.5 874.5C660 825 567.5 823 526.5 857C487 739 400 723 317 754C298.5 666 183 661.5 153.5 713.5C116.5 687 111.365 654.901 109.5 616Z" fill="#181818"/>
<path d="M109.5 616H-2.5V1044.5H836.5V884C806 872.5 747 857 709.5 874.5C660 825 567.5 823 526.5 857C487 739 400 723 317 754C298.5 666 183 661.5 153.5 713.5C116.5 687 111.365 654.901 109.5 616Z" fill="white" fill-opacity="0.1"/>
</svg>
