<svg width="1799" height="886" viewBox="0 0 1799 886" fill="none" xmlns="http://www.w3.org/2000/svg">
<path d="M1276 354.5L1097 154V335.108L1276 354.5Z" fill="#E40016"/>
<path d="M1276 354.5L1097 154V335.108L1276 354.5Z" fill="black" fill-opacity="0.9"/>
<path d="M1097 154L976 322L1097 335.108V154Z" fill="#E40016"/>
<path d="M1097 154L976 322L1097 335.108V154Z" fill="black" fill-opacity="0.8"/>
<path d="M1339 373L1190.43 207V356.945L1339 373Z" fill="#E40016"/>
<path d="M1339 373L1190.43 207V356.945L1339 373Z" fill="black" fill-opacity="0.9"/>
<path d="M1190.43 207L1090 346.092L1190.43 356.945V207Z" fill="#E40016"/>
<path d="M1190.43 207L1090 346.092L1190.43 356.945V207Z" fill="black" fill-opacity="0.8"/>
<path d="M57.4062 613.704C55.8139 656.758 68.7318 685.817 105.333 714.877C129.016 672.364 229.642 653.794 281.878 755.775C371.228 734.249 447.659 751.47 506.843 866.089C556.923 838.109 602.674 848.872 679.621 886C707.095 871.474 740.466 869.859 791.061 886C819.154 794.812 924.009 765.461 1043.5 840.262C1099.48 739.093 1244.27 694.966 1450.42 757.389C1477.84 721.233 1509.62 698.73 1580.13 733.711C1599.64 690.043 1682.94 645.457 1778.19 698.73C1810.23 621.029 1810.5 567.428 1741.59 515.764C1780.36 444.195 1723.31 334.954 1611.87 354.862C1580.99 293.619 1502.09 242.933 1406.26 287.057C1329.85 198.806 1210.36 223.022 1160.82 318.807C1128.65 319.616 1105.4 325.268 1089.79 343.026C1037.58 233.785 887.408 246.162 853.498 355.941C810.438 342.488 772.761 338.183 725.395 364.013C702.298 344.89 673.723 340.874 641.966 342.488C629.587 189.657 471.88 152.526 382.508 224.095C284.548 206.34 213.499 258.539 186.586 338.718C54.1995 304.819 -79.2923 471.102 57.4062 613.704Z" fill="white"/>
<path d="M57.4062 613.704C55.8139 656.758 68.7318 685.817 105.333 714.877C129.016 672.364 229.642 653.794 281.878 755.775C371.228 734.249 447.659 751.47 506.843 866.089C556.923 838.109 602.674 848.872 679.621 886C707.095 871.474 740.466 869.859 791.061 886C819.154 794.812 924.009 765.461 1043.5 840.262C1099.48 739.093 1244.27 694.966 1450.42 757.389C1477.84 721.233 1509.62 698.73 1580.13 733.711C1599.64 690.043 1682.94 645.457 1778.19 698.73C1810.23 621.029 1810.5 567.428 1741.59 515.764C1780.36 444.195 1723.31 334.954 1611.87 354.862C1580.99 293.619 1502.09 242.933 1406.26 287.057C1329.85 198.806 1210.36 223.022 1160.82 318.807C1128.65 319.616 1105.4 325.268 1089.79 343.026C1037.58 233.785 887.408 246.162 853.498 355.941C810.438 342.488 772.761 338.183 725.395 364.013C702.298 344.89 673.723 340.874 641.966 342.488C629.587 189.657 471.88 152.526 382.508 224.095C284.548 206.34 213.499 258.539 186.586 338.718C54.1995 304.819 -79.2923 471.102 57.4062 613.704Z" fill="#181818" fill-opacity="0.4"/>
<path d="M1374.85 467.076C1374.85 467.076 1367.29 376.608 1273.35 373.076V571.076H1399.85C1475.86 550.077 1443.36 448.077 1374.85 467.076Z" fill="#181818"/>
<path d="M1374.85 467.076C1374.85 467.076 1367.29 376.608 1273.35 373.076V571.076H1399.85C1475.86 550.077 1443.36 448.077 1374.85 467.076Z" fill="white" fill-opacity="0.8"/>
<path d="M1273.35 373.076C1206.86 370.576 1180.85 430.576 1180.85 430.576C1095.86 423.077 1070.37 557.577 1166.85 571.076H1273.35V373.076Z" fill="#CCCCCC"/>
<path d="M1273.35 373.076C1206.86 370.576 1180.85 430.576 1180.85 430.576C1095.86 423.077 1070.37 557.577 1166.85 571.076H1273.35V373.076Z" fill="#181818" fill-opacity="0.6"/>
<path d="M368.5 96.2272L353 80.2272C386.5 39.7277 469.5 28.7286 516 80.2272L499.5 96.2272C462.5 60.7285 406 61.7285 368.5 96.2272Z" fill="#E40016"/>
<path d="M368.5 96.2272L353 80.2272C386.5 39.7277 469.5 28.7286 516 80.2272L499.5 96.2272C462.5 60.7285 406 61.7285 368.5 96.2272Z" fill="black" fill-opacity="0.7"/>
<path d="M321 48.2278L337 64.7279C390 14.7286 471 8.72863 532.5 64.2278L548.5 48.2278C486 -19.7715 372.5 -12.2714 321 48.2278Z" fill="#E40016"/>
<path d="M321 48.2278L337 64.7279C390 14.7286 471 8.72863 532.5 64.2278L548.5 48.2278C486 -19.7715 372.5 -12.2714 321 48.2278Z" fill="#181818" fill-opacity="0.9"/>
<circle cx="435" cy="164" r="18" fill="#E40016"/>
<circle cx="435" cy="164" r="18" fill="#181818" fill-opacity="0.2"/>
<path d="M385 112.226L400.5 127.726C423.5 109.228 445.5 110.228 468 127.726L484 112.226C454.5 80.7285 404 88.2295 385 112.226Z" fill="#E40016"/>
<path d="M385 112.226L400.5 127.726C423.5 109.228 445.5 110.228 468 127.726L484 112.226C454.5 80.7285 404 88.2295 385 112.226Z" fill="black" fill-opacity="0.5"/>
<path d="M338 399L543 400.5C554.5 400.5 558 415 558 421V706H590.5C608 706 623.5 721.5 623.5 743V877H246V731C253.821 723.587 259.313 715.125 273.5 706H314V421L338 399Z" fill="black"/>
<path d="M547.5 402L331 400L425.5 362H445L547.5 402Z" fill="black" stroke="black"/>
<path d="M485.5 450H470V694.5H485.5V450Z" fill="#CCCCCC"/>
<path d="M485.5 450H470V694.5H485.5V450Z" fill="black" fill-opacity="0.5"/>
<path d="M529.5 450H513V694.5H529.5V450Z" fill="#CCCCCC"/>
<path d="M529.5 450H513V694.5H529.5V450Z" fill="black" fill-opacity="0.5"/>
<rect x="424" y="202" width="22" height="160" fill="black"/>
<path d="M437 694V399H334.417C323.462 399 314 409.554 314 419.605V694H342.883V451.266H358.32V694H388.198V451.266H404.632V694H437Z" fill="#CCCCCC"/>
<path d="M437 694V399H334.417C323.462 399 314 409.554 314 419.605V694H342.883V451.266H358.32V694H388.198V451.266H404.632V694H437Z" fill="black" fill-opacity="0.5"/>
<path d="M500.5 733H484V861H500.5V733Z" fill="#CCCCCC"/>
<path d="M500.5 733H484V861H500.5V733Z" fill="black" fill-opacity="0.5"/>
<path d="M551.5 733H532V861H551.5V733Z" fill="#CCCCCC"/>
<path d="M551.5 733H532V861H551.5V733Z" fill="black" fill-opacity="0.5"/>
<path d="M595 733H578V861H595V733Z" fill="#CCCCCC"/>
<path d="M595 733H578V861H595V733Z" fill="black" fill-opacity="0.5"/>
<path d="M422 861V706H267.561C250.004 706 246.001 718.837 246 733.101V861H320.211V733.101H337.761V861H366.342V733.101H382.387V861H422Z" fill="#CCCCCC"/>
<path d="M422 861V706H267.561C250.004 706 246.001 718.837 246 733.101V861H320.211V733.101H337.761V861H366.342V733.101H382.387V861H422Z" fill="black" fill-opacity="0.5"/>
</svg>
