<svg width="1735" height="2633" viewBox="0 0 1735 2633" fill="none" xmlns="http://www.w3.org/2000/svg">
<path d="M1705.5 0.5V322.5H1536V1150.5M1536 1150.5V1421H1634.5V1706.5M1536 1150.5H1013V1315.5M780.5 1400H637.5V581M780.5 322.5H732.5M732.5 322.5H637.5V581M732.5 322.5V121.5M985.5 121.5V322.5H949.5M637.5 581H209M1 0.5V581H209M209 581V923.5H17V1918.5V2125.5M17 2242.5V2125.5M1086.25 2517.5V2379.75H1262V2040V1888H1446.5M1542.5 1788V2032H1734.5V2449.5M17 2125.5H347V2351V2633M944.5 1888H848V2110.5H732M616 2110.5H732M732 2110.5V2225.5" stroke="#808080"/>
<path d="M1670.56 262.731H1613.44L1622.96 306H1662.34L1670.56 262.731Z" fill="#E40016"/>
<path d="M1670.56 262.731H1613.44L1622.96 306H1662.34L1670.56 262.731Z" fill="#181818" fill-opacity="0.6"/>
<path d="M1639.4 187.875V262.731H1645.46V187.875C1645.46 187.875 1646.19 185.266 1646.33 183.548C1646.56 180.665 1646.58 178.859 1645.46 176.192C1644.48 173.856 1643.3 171 1641.57 171C1639.83 171 1638.22 175.433 1637.67 178.788C1637.37 180.623 1637.32 181.724 1637.67 183.548C1638.02 185.334 1639.4 187.875 1639.4 187.875Z" fill="#1E1E1E"/>
<path d="M1645.21 206.96C1643.85 209.685 1644.11 210.791 1643.85 213.316C1643.59 215.784 1643.85 219.671 1643.85 219.671C1643.85 219.671 1649.75 221.034 1656.56 219.671C1663.36 218.309 1673.46 210.626 1678.35 200.605C1678.35 200.605 1672.06 198.766 1667.91 198.335C1664.03 197.933 1662.46 197.428 1657.92 198.335C1653.38 199.243 1646.57 204.236 1645.21 206.96Z" fill="#1E1E1E"/>
<path d="M1644.65 184.497C1643.8 186.2 1643.97 186.891 1643.8 188.469C1643.64 190.012 1643.8 192.441 1643.8 192.441C1643.8 192.441 1647.49 193.293 1651.75 192.441C1656 191.59 1662.31 186.788 1665.37 180.525C1665.37 180.525 1661.43 179.375 1658.84 179.106C1656.42 178.855 1655.44 178.539 1652.6 179.106C1649.76 179.673 1645.5 182.794 1644.65 184.497Z" fill="#1E1E1E"/>
<path d="M1638.79 207.94C1640.15 210.441 1639.89 211.456 1640.15 213.773C1640.41 216.039 1640.15 219.606 1640.15 219.606C1640.15 219.606 1634.25 220.857 1627.44 219.606C1620.64 218.356 1610.54 211.305 1605.65 202.107C1605.65 202.107 1611.94 200.419 1616.09 200.024C1619.97 199.655 1621.54 199.191 1626.08 200.024C1630.62 200.857 1637.43 205.44 1638.79 207.94Z" fill="#1E1E1E"/>
<path d="M1639.35 185.758C1640.2 187.321 1640.03 187.956 1640.2 189.404C1640.36 190.82 1640.2 193.05 1640.2 193.05C1640.2 193.05 1636.51 193.831 1632.25 193.05C1628 192.268 1621.69 187.861 1618.63 182.113C1618.63 182.113 1622.57 181.058 1625.16 180.811C1627.58 180.58 1628.56 180.29 1631.4 180.811C1634.24 181.331 1638.5 184.196 1639.35 185.758Z" fill="#1E1E1E"/>
<path d="M1645.58 238.667C1643.88 242.072 1644.2 243.455 1643.87 246.611C1643.55 249.696 1643.87 254.555 1643.87 254.555C1643.87 254.555 1651.25 256.258 1659.76 254.555C1668.27 252.852 1680.89 243.249 1687 230.723C1687 230.723 1679.14 228.424 1673.95 227.885C1669.1 227.382 1667.14 226.751 1661.47 227.885C1655.79 229.02 1647.28 235.261 1645.58 238.667Z" fill="#1E1E1E"/>
<path d="M1638.42 239.459C1640.12 242.585 1639.8 243.854 1640.13 246.75C1640.45 249.582 1640.13 254.041 1640.13 254.041C1640.13 254.041 1632.75 255.605 1624.24 254.041C1615.73 252.478 1603.11 243.665 1597 232.168C1597 232.168 1604.86 230.058 1610.05 229.564C1614.9 229.102 1616.86 228.523 1622.53 229.564C1628.21 230.605 1636.72 236.334 1638.42 239.459Z" fill="#1E1E1E"/>
<rect x="62" y="167" width="100" height="88.764" fill="#282828"/>
<rect x="88.9663" y="207.449" width="44.9438" height="7.86517" fill="#A6A6A6"/>
<rect x="165" y="167" width="100" height="88.764" fill="#1E1E1E"/>
<rect x="191.966" y="207.449" width="44.9438" height="7.86517" fill="#A6A6A6"/>
<rect x="62" y="258.764" width="100" height="88.764" fill="#1E1E1E"/>
<rect x="88.9663" y="299.214" width="44.9438" height="7.86517" fill="#A6A6A6"/>
<rect x="165" y="258.764" width="100" height="88.764" fill="#282828"/>
<rect x="191.966" y="299.214" width="44.9438" height="7.86517" fill="#A6A6A6"/>
<rect x="62" y="350.528" width="100" height="88.764" fill="#282828"/>
<rect x="88.9663" y="390.978" width="44.9438" height="7.86517" fill="#A6A6A6"/>
<rect x="165" y="350.528" width="100" height="88.764" fill="#282828"/>
<rect x="191.966" y="390.978" width="44.9438" height="7.86517" fill="#A6A6A6"/>
<rect x="268" y="350.528" width="100" height="88.764" fill="#282828"/>
<rect x="294.966" y="390.978" width="44.9438" height="7.86517" fill="#A6A6A6"/>
<rect x="371" y="350.528" width="100" height="88.764" fill="#282828"/>
<rect x="397.966" y="390.978" width="44.9438" height="7.86517" fill="#A6A6A6"/>
<rect x="62" y="442.292" width="100" height="79" fill="#282828"/>
<rect x="88.9663" y="478.292" width="44.9438" height="7" fill="#A6A6A6"/>
<rect x="165" y="442.292" width="100" height="79" fill="#1E1E1E"/>
<rect x="191.966" y="478.292" width="44.9438" height="7" fill="#A6A6A6"/>
<rect x="268" y="442.292" width="100" height="79" fill="#282828"/>
<rect x="294.966" y="478.292" width="44.9438" height="7" fill="#A6A6A6"/>
<rect x="371" y="442.292" width="100" height="79" fill="#282828"/>
<rect x="397.966" y="478.292" width="44.9438" height="7" fill="#A6A6A6"/>
<path d="M283.21 236L265 241.42L268.5 253.179L286.634 247.5L283.21 236Z" fill="#1E1E1E"/>
<path d="M297.544 350.759L315.755 345.338L290.056 259L272.019 265L297.544 350.759Z" fill="#1E1E1E"/>
<path d="M287.526 250.5L269.34 256L271.274 262.5L289.312 256.5L287.526 250.5Z" fill="#1E1E1E"/>
<path d="M323.001 332.165L323.031 351.165L339 351.178L339 332.179L323.001 332.165Z" fill="#1E1E1E"/>
<path d="M440.11 351.023L440.08 332.023L349.998 332.165L349.998 351.144L440.11 351.023Z" fill="#1E1E1E"/>
<path d="M341.13 332.179L341.243 351.178L348.025 351.168L347.39 332.169L341.13 332.179Z" fill="#1E1E1E"/>
<path d="M343.031 332.18L343.001 313.18L355 313.161L358.131 313.156L364.391 313.146L366.999 313.142L457.081 313.001L457.11 332.001L367.634 332.141L365.025 332.145L358.243 332.156L355.3 332.16L343.031 332.18Z" fill="#1E1E1E"/>
<path d="M573 471H507L518 521H563.5L573 471Z" fill="#E40016"/>
<path d="M573 471H507L518 521H563.5L573 471Z" fill="#181818" fill-opacity="0.6"/>
<path d="M537 384.5V471H544V384.5C544 384.5 544.84 381.485 545 379.5C545.268 376.168 545.295 374.081 544 371C542.864 368.3 541.501 365 539.5 365C537.498 365 535.636 370.122 535 374C534.652 376.12 534.589 377.392 535 379.5C535.402 381.564 537 384.5 537 384.5Z" fill="#1E1E1E"/>
<path d="M543.706 406.554C542.136 409.702 542.438 410.981 542.133 413.898C541.834 416.751 542.133 421.242 542.133 421.242C542.133 421.242 548.955 422.817 556.821 421.242C564.687 419.668 576.352 410.79 582 399.21C582 399.21 574.731 397.085 569.935 396.587C565.452 396.122 563.64 395.539 558.394 396.587C553.149 397.636 545.277 403.406 543.706 406.554Z" fill="#1E1E1E"/>
<path d="M543.067 380.596C542.085 382.564 542.274 383.363 542.083 385.186C541.896 386.969 542.083 389.776 542.083 389.776C542.083 389.776 546.347 390.76 551.263 389.776C556.179 388.792 563.47 383.244 567 376.006C567 376.006 562.457 374.678 559.459 374.367C556.658 374.076 555.525 373.712 552.247 374.367C548.968 375.022 544.048 378.629 543.067 380.596Z" fill="#1E1E1E"/>
<path d="M536.294 407.687C537.864 410.576 537.562 411.75 537.867 414.427C538.166 417.045 537.867 421.167 537.867 421.167C537.867 421.167 531.045 422.612 523.179 421.167C515.313 419.722 503.648 411.575 498 400.946C498 400.946 505.269 398.996 510.065 398.539C514.548 398.112 516.36 397.577 521.606 398.539C526.851 399.501 534.723 404.797 536.294 407.687Z" fill="#1E1E1E"/>
<path d="M536.933 382.054C537.915 383.86 537.726 384.593 537.917 386.267C538.104 387.903 537.917 390.48 537.917 390.48C537.917 390.48 533.653 391.383 528.737 390.48C523.821 389.576 516.53 384.484 513 377.841C513 377.841 517.543 376.622 520.541 376.337C523.342 376.07 524.475 375.735 527.753 376.337C531.032 376.938 535.952 380.248 536.933 382.054Z" fill="#1E1E1E"/>
<path d="M544.133 443.193C542.17 447.128 542.548 448.726 542.166 452.373C541.793 455.938 542.166 461.553 542.166 461.553C542.166 461.553 550.693 463.521 560.526 461.553C570.358 459.585 584.94 448.488 592 434.013C592 434.013 582.914 431.356 576.919 430.734C571.315 430.153 569.05 429.424 562.493 430.734C555.936 432.045 546.097 439.257 544.133 443.193Z" fill="#1E1E1E"/>
<path d="M535.867 444.108C537.83 447.72 537.452 449.187 537.834 452.534C538.207 455.806 537.834 460.959 537.834 460.959C537.834 460.959 529.307 462.765 519.474 460.959C509.642 459.153 495.06 448.968 488 435.683C488 435.683 497.086 433.245 503.081 432.674C508.685 432.14 510.95 431.471 517.507 432.674C524.064 433.877 533.903 440.497 535.867 444.108Z" fill="#1E1E1E"/>
<rect x="186" y="1842" width="100" height="88.764" fill="#282828"/>
<rect x="210" y="1878" width="40" height="7" fill="#A6A6A6"/>
<rect x="289" y="1842" width="100" height="88.764" fill="#1E1E1E"/>
<rect x="315.966" y="1882.45" width="44.9438" height="7.86517" fill="#A6A6A6"/>
<rect x="392" y="1842" width="100" height="88.764" fill="#282828"/>
<rect x="418.966" y="1882.45" width="44.9438" height="7.86517" fill="#A6A6A6"/>
<rect x="495" y="1842" width="100" height="88.764" fill="#282828"/>
<rect x="521.966" y="1882.45" width="44.9438" height="7.86517" fill="#A6A6A6"/>
<rect x="598" y="1842" width="100" height="88.764" fill="#1E1E1E"/>
<rect x="624.966" y="1882.45" width="44.9438" height="7.86517" fill="#A6A6A6"/>
<path d="M634 1792H568L579 1842H624.5L634 1792Z" fill="#E40016"/>
<path d="M634 1792H568L579 1842H624.5L634 1792Z" fill="#181818" fill-opacity="0.6"/>
<path d="M598 1705.5V1792H605V1705.5C605 1705.5 605.84 1702.48 606 1700.5C606.268 1697.17 606.295 1695.08 605 1692C603.864 1689.3 602.501 1686 600.5 1686C598.498 1686 596.636 1691.12 596 1695C595.652 1697.12 595.589 1698.39 596 1700.5C596.402 1702.56 598 1705.5 598 1705.5Z" fill="#1E1E1E"/>
<path d="M604.706 1727.55C603.136 1730.7 603.438 1731.98 603.133 1734.9C602.834 1737.75 603.133 1742.24 603.133 1742.24C603.133 1742.24 609.955 1743.82 617.821 1742.24C625.687 1740.67 637.352 1731.79 643 1720.21C643 1720.21 635.731 1718.09 630.935 1717.59C626.452 1717.12 624.64 1716.54 619.394 1717.59C614.149 1718.64 606.277 1724.41 604.706 1727.55Z" fill="#1E1E1E"/>
<path d="M604.067 1701.6C603.085 1703.56 603.274 1704.36 603.083 1706.19C602.896 1707.97 603.083 1710.78 603.083 1710.78C603.083 1710.78 607.347 1711.76 612.263 1710.78C617.179 1709.79 624.47 1704.24 628 1697.01C628 1697.01 623.457 1695.68 620.459 1695.37C617.658 1695.08 616.525 1694.71 613.247 1695.37C609.968 1696.02 605.048 1699.63 604.067 1701.6Z" fill="#1E1E1E"/>
<path d="M597.294 1728.69C598.864 1731.58 598.562 1732.75 598.867 1735.43C599.166 1738.04 598.867 1742.17 598.867 1742.17C598.867 1742.17 592.045 1743.61 584.179 1742.17C576.313 1740.72 564.648 1732.57 559 1721.95C559 1721.95 566.269 1720 571.065 1719.54C575.548 1719.11 577.36 1718.58 582.606 1719.54C587.851 1720.5 595.723 1725.8 597.294 1728.69Z" fill="#1E1E1E"/>
<path d="M597.933 1703.05C598.915 1704.86 598.726 1705.59 598.917 1707.27C599.104 1708.9 598.917 1711.48 598.917 1711.48C598.917 1711.48 594.653 1712.38 589.737 1711.48C584.821 1710.58 577.53 1705.48 574 1698.84C574 1698.84 578.543 1697.62 581.541 1697.34C584.342 1697.07 585.475 1696.74 588.753 1697.34C592.032 1697.94 596.952 1701.25 597.933 1703.05Z" fill="#1E1E1E"/>
<path d="M605.133 1764.19C603.17 1768.13 603.548 1769.73 603.166 1773.37C602.793 1776.94 603.166 1782.55 603.166 1782.55C603.166 1782.55 611.693 1784.52 621.526 1782.55C631.358 1780.58 645.94 1769.49 653 1755.01C653 1755.01 643.914 1752.36 637.919 1751.73C632.315 1751.15 630.05 1750.42 623.493 1751.73C616.936 1753.04 607.097 1760.26 605.133 1764.19Z" fill="#1E1E1E"/>
<path d="M596.867 1765.11C598.83 1768.72 598.452 1770.19 598.834 1773.53C599.207 1776.81 598.834 1781.96 598.834 1781.96C598.834 1781.96 590.307 1783.77 580.474 1781.96C570.642 1780.15 556.06 1769.97 549 1756.68C549 1756.68 558.086 1754.24 564.081 1753.67C569.685 1753.14 571.95 1752.47 578.507 1753.67C585.064 1754.88 594.903 1761.5 596.867 1765.11Z" fill="#1E1E1E"/>
<path d="M314.032 1720C314.032 1720 310.16 1721.05 310.032 1723C309.907 1724.93 313.293 1724.58 313.532 1726.5C313.809 1728.71 309.591 1728.82 310.032 1731C310.42 1732.91 313.885 1732.05 314.032 1734C314.189 1736.07 310.032 1737.5 310.032 1737.5M322.532 1720C322.532 1720 319.171 1721.21 319.032 1723C318.884 1724.93 322.532 1724.57 322.532 1726.5C322.532 1728.43 319.368 1728.1 319.032 1730C318.618 1732.35 323.327 1732.75 322.532 1735C321.973 1736.58 319.032 1737.5 319.032 1737.5" stroke="#1E1E1E" stroke-linecap="round" stroke-linejoin="round"/>
<path d="M442.5 1842H370L360 1795.5H358.5L347.5 1812.5C339.5 1814.5 336.5 1815 331.5 1809L315 1781H305L304.5 1769.5C299.388 1767.94 297.409 1766.26 296 1761V1757.5C296.479 1753.72 297.219 1751.9 300.5 1750L299.5 1741H334.5L330.5 1760H334.5L342.5 1778.5C342.5 1778.5 352 1752.68 360 1746.5C368.99 1739.55 378.652 1744.13 387.5 1737C390.295 1734.75 394 1730.5 394 1730.5C385.186 1723.05 383.05 1718.1 379 1706C376.015 1705.43 374.539 1704.62 373 1700.5C373 1700.5 372.795 1698.65 373 1697.5C373.446 1694.99 376.5 1692 376.5 1692V1689.5H373C375.829 1686.1 376.622 1684.15 376.5 1680.5L379 1682.5V1674.5C383.394 1672.94 386.983 1668.55 387.5 1665.5L395 1666.5V1663.5H404.5L409 1659L410 1662.5H414L419 1659L420 1667.5L426.5 1665C426.5 1665 427.71 1670.09 430 1672C433 1674.5 436.5 1676 436.5 1676L434.5 1680.5C435.371 1685.19 437.921 1687.68 439 1689.5H435L435.5 1692C435.5 1692 438.958 1693.53 440 1695.5C441.188 1697.74 440 1702 440 1702C438.369 1705.72 436.803 1706.48 433 1706C428.603 1718.73 425.336 1723.5 419 1730.5L423.5 1737C423.5 1737 443.124 1739.14 452.5 1746.5C457.949 1750.78 460.903 1753.81 464 1760C468.5 1769 471 1817.5 471 1817.5L442.5 1840V1842Z" fill="#1E1E1E"/>
<rect x="1104" y="1418" width="100" height="88.764" fill="#282828"/>
<rect x="1130.97" y="1458.45" width="44.9438" height="7.86517" fill="#A6A6A6"/>
<rect x="1207" y="1418" width="100" height="88.764" fill="#282828"/>
<rect x="1233.97" y="1458.45" width="44.9438" height="7.86517" fill="#A6A6A6"/>
<rect x="1310" y="1418" width="100" height="88.764" fill="#1E1E1E"/>
<rect x="1336.97" y="1458.45" width="44.9438" height="7.86517" fill="#A6A6A6"/>
<rect x="1104" y="1509.76" width="100" height="88.764" fill="#1E1E1E"/>
<rect x="1130.97" y="1550.21" width="44.9438" height="7.86517" fill="#A6A6A6"/>
<rect x="1207" y="1509.76" width="100" height="88.764" fill="#282828"/>
<rect x="1233.97" y="1550.21" width="44.9438" height="7.86517" fill="#A6A6A6"/>
<rect x="1310" y="1509.76" width="100" height="88.764" fill="#282828"/>
<rect x="1336.97" y="1550.21" width="44.9438" height="7.86517" fill="#A6A6A6"/>
<rect x="1413" y="1509.76" width="100" height="88.764" fill="#1E1E1E"/>
<rect x="1439.97" y="1550.21" width="44.9438" height="7.86517" fill="#A6A6A6"/>
<rect x="1104" y="1601.53" width="100" height="88.764" fill="#282828"/>
<rect x="1130.97" y="1641.98" width="44.9438" height="7.86517" fill="#A6A6A6"/>
<rect x="1207" y="1601.53" width="100" height="88.764" fill="#282828"/>
<rect x="1233.97" y="1641.98" width="44.9438" height="7.86517" fill="#A6A6A6"/>
<rect x="1310" y="1601.53" width="100" height="88.764" fill="#282828"/>
<rect x="1336.97" y="1641.98" width="44.9438" height="7.86517" fill="#A6A6A6"/>
<rect x="1413" y="1601.53" width="100" height="88.764" fill="#282828"/>
<rect x="1439.97" y="1641.98" width="44.9438" height="7.86517" fill="#A6A6A6"/>
<rect x="1104" y="1362" width="300" height="29" fill="#282828"/>
<path d="M1354.53 1304C1354.53 1304 1351.03 1305.2 1351.03 1307C1351.03 1308.8 1354.17 1308.24 1354.53 1310C1354.98 1312.18 1350.59 1312.32 1351.03 1314.5C1351.39 1316.26 1354.39 1315.71 1354.53 1317.5C1354.68 1319.43 1351.03 1321 1351.03 1321M1363.03 1304C1363.03 1304 1360.03 1305.34 1360.03 1307C1360.03 1308.66 1362.71 1308.38 1363.03 1310C1363.45 1312.07 1359.62 1312.43 1360.03 1314.5C1360.36 1316.12 1363.18 1315.85 1363.03 1317.5C1362.89 1319.02 1360.03 1320 1360.03 1320" stroke="#1E1E1E" stroke-width="2" stroke-linecap="round"/>
<path fill-rule="evenodd" clip-rule="evenodd" d="M1375 1325H1342V1362H1375V1354C1375 1354 1377.79 1354.41 1379.5 1354C1383.95 1352.95 1386.22 1349.51 1387 1345C1387.27 1343.46 1387.3 1342.53 1387 1341C1386.17 1336.8 1383.67 1333.97 1379.5 1333C1377.79 1332.6 1375 1333 1375 1333V1325ZM1375 1337.5C1375 1337.5 1376.87 1337.2 1378 1337.5C1380.01 1338.02 1381.26 1339.06 1382 1341C1382.55 1342.46 1382.49 1343.52 1382 1345C1381.3 1347.1 1380.13 1348.42 1378 1349C1376.87 1349.31 1375 1349 1375 1349V1337.5Z" fill="#1E1E1E"/>
<rect x="1121" y="1215" width="162" height="109" rx="10" fill="#282828"/>
<rect x="1132" y="1229" width="139" height="70" rx="5" fill="#A6A6A6"/>
<path d="M1252.63 1418H1152.13L1134.63 1336.5C1132.63 1324.5 1134.63 1311.7 1152.13 1311L1180.13 1311.7C1176.41 1308.91 1174.86 1306 1172.63 1299.5C1163.47 1298.1 1160.22 1295.25 1155.13 1289.5C1161.74 1285.11 1165.29 1281.9 1171.13 1273C1171.13 1273 1177.63 1250 1202.13 1250C1226.63 1250 1233.13 1273 1233.13 1273C1238.85 1283.69 1242.35 1287.46 1248.63 1289.5C1244.47 1296.75 1240.37 1297.95 1232.13 1298.5C1230.55 1305.15 1228.8 1308.06 1225.13 1312.82L1252.63 1313.5C1265.13 1314.5 1271.63 1323.5 1268.63 1336.5L1252.63 1418Z" fill="#1E1E1E"/>
</svg>
